<mxfile host="65bd71144e">
    <diagram id="K5bD9pIdhM9CKlXMY6Xt" name="Page-1">
        <mxGraphModel dx="3320" dy="1405" grid="0" gridSize="10" guides="1" tooltips="1" connect="1" arrows="1" fold="1" page="0" pageScale="1" pageWidth="850" pageHeight="1100" math="0" shadow="0">
            <root>
                <mxCell id="0"/>
                <mxCell id="1" parent="0"/>
                <mxCell id="50" style="edgeStyle=none;html=1;exitX=1;exitY=0.5;exitDx=0;exitDy=0;entryX=0;entryY=0.5;entryDx=0;entryDy=0;strokeWidth=3;fontSize=16;startArrow=classic;startFill=1;endArrow=classic;endFill=1;" edge="1" parent="1" source="46" target="26">
                    <mxGeometry relative="1" as="geometry"/>
                </mxCell>
                <mxCell id="54" style="edgeStyle=none;html=1;strokeWidth=3;fontSize=16;startArrow=classic;startFill=1;endArrow=classic;endFill=1;" edge="1" parent="1" source="46" target="52">
                    <mxGeometry relative="1" as="geometry"/>
                </mxCell>
                <mxCell id="46" value="" style="rounded=0;whiteSpace=wrap;html=1;strokeWidth=1;fillColor=none;fontStyle=1;fontSize=16;" vertex="1" parent="1">
                    <mxGeometry x="-463" y="518" width="429" height="92" as="geometry"/>
                </mxCell>
                <mxCell id="26" value="&lt;span style=&quot;white-space: pre;&quot;&gt;&#9;&lt;/span&gt;&lt;span style=&quot;white-space: pre;&quot;&gt;&#9;&lt;/span&gt;&lt;b&gt;&lt;font style=&quot;font-size: 17px;&quot;&gt;Black List&lt;/font&gt;&lt;/b&gt;" style="html=1;whiteSpace=wrap;container=1;recursiveResize=0;collapsible=0;strokeWidth=5;fillColor=none;" vertex="1" parent="1">
                    <mxGeometry x="270.25" y="515" width="249" height="98" as="geometry"/>
                </mxCell>
                <mxCell id="23" value="" style="shape=image;imageAspect=0;aspect=fixed;verticalLabelPosition=bottom;verticalAlign=top;strokeWidth=5;fillColor=none;image=data:image/png,iVBORw0KGgoAAAANSUhEUgAAAlQAAAIACAMAAABzWQL6AAAABGdBTUEAALGPC/xhBQAAAAFzUkdCAK7OHOkAAAMAUExURUdwTKcoKLcwJZAmJpEmJqc2NqwoKJEmJuEAAI8lJY8mJsYvKpAlJY8nJ8YvKsYvKsYwKpIjI8UvKpEnJ5AjI8YvKZImJo8mJsUuK5AlJZElJZElJccuLJAlJZQlJccvKsYvKsYvKsUuKsUwKZEmJsYtKMgxKo8kJJElJZAlJcMuKMYvKpElJZAlJcYvKsYuK48jI5ElJZAlJcUvKsYvKcYvKpAlJZElJcUvKZElJY4mJpAlJZElJcYuKZElJZEkJJAlJcYvK8YuKpAlJY8jI8YvK8UvKsUyKMYvKsUuKsQvKMcvK8YvKpAlJZElJcYwKZElJcUvKsYvKZAmJpElJccvKpElJZAlJcUxK5AkJMYvKsUvKsUvKsUvKpElJZElJcYvKsMwK5AkJJAlJcUxKpEkJJElJcMtKsYvKpAlJZElJZEkJJAlJcYvKY4mJpEkJMQuK8MuKJElJbssJ8UtK8MtKI4mJpEkJI4mJo4jI6YqKJslJa0rKLMqKbItKbYqJ6UrKKAoJ54nJbcsKJEmJsYwK////5opKGIbHMUwK5ImJponJr8vKpYnJpQmJsMvKrIsKaApJ6wrKMIvKrgtKaIpJ7wuKqUpKKgqKLQsKa8sKbUtKb4uKsEvKpknJp4oJ64rKKkqKMAuKrktKsQwK7otKacqKLArKJwoJ50oJ5QnJ5MmJaoqKKMpJ8YvKscyLZcnJsQvKpsoJsYxLLctKY8lI8g1MP/+/s5LR9RiXv35+dt7eN6EgdFYVM9QTMtCPfnp6d+Jhtduatp3c+u1s40kI/329uGRj//9/ck6NfDIxtVmY9ZqZu/Ew/fg39NcWNBUUOahn+CNi9x/fPvw8Pbb29lzcO7Av+mvrcg3Mso9OOqysOKVkvjm5WMbHPHKyco/O/fj4vz09PPS0fHNzIskI81IRNhxbsxFQfrt7eisqueopf76+uSbmey5uOSem3EeHuakomsdHWccHe29vPPU03cfH+OYlfTX1n0gIIIhIPLPzv78/PTZ2IUiIYgjIZywpiYAAACEdFJOUwAGCP7iAwzoAeD3ZtQTS5xaD1Im+rYY8S2SOqwcKwondZLrOCD8FBxzqPWBRcCvvPN9mMhEPYJY3l78eLPMh9m3e5bF7fiNGdPn4yBwz1LwTDLYMqNgP2kP56qGoqduNsL5jcgj3rzxbZ4vnGK/6u/a1mb61fr4Mdze8Orz9vf1Hv375ypRf0YAACAASURBVHja7J1bTJPZFsfRCIeEBAwJCQ9kuAUeJMEHIPGFB0m8mxhMSAxigomJvJhoxnmZc87bt7+C0aPoKDOgx6NUzjjqMA5SoC2UtiiXcr9f5aog18OIeJ2Z0wKjXNrS9tt77f21+/dcWr7df9Ze/a+11/by4nA49PAJjU8JOx4ekJaWFhB+PCzFP9iHLwrHVY4lZCSlH0AbOZCe5Be5lS8Qxym8g/3SjiK7RCWGB0bzleI4hG9oRmwEcoz9e/15xOJstuUFBhxETrEnyG8fXzeOLUIydn6DXCEu7BBfPc5GgncnIgkkhoXwNeSsTqOCY44iyaT78cSds0JozDmEh29iA3nezvEKCUtEOIlIivTlq+rRv/VSzigRds6H8Z+DnsoW/9Q9iAxRQYFb+AJ7XmqeHB6BSBKxN5ivsoclUucQeRL9jvGl9hC+2h6kRDDsSYv35gvu/tteQsBpBMmu3dwUdfNtb/dZBI6SZ+3uy1a4bY9n7Z6x7UUmHUE0ifPjDaPuxb6w84g6OwISuNfuLmwJjI1CbHA0jJec3YHgvRGIIaJi/bnJIG+O+SUi5jgYwzv6ZIt3/Ik9iEmUO3mHjCw5FLMLMQw3GWRoSe1EzBOXwk0G+VhSyUmnkSw4EsAb+mRB9OH9SEbsP8xNBtZzc//Uk0hmnDzBOxkY5lTMQSRLeCcDs7n5GSRflEHcE3WL3HyiiCldHTh+in+Rss/NyxqrdWzFq53buSfKRm4e73Ju3iXWLBgK2TIZwrknyoBvLiE3r6gRRbFyppR7ohx8vnm3uESdUSVZCoVNLZ3cE5U9yeGSWzkn1MuqEtvnmyUpqmy+UlT34vREM7gnCs6xDCw9LXPiZ0bbal1UlGnqleUNujGf7jrB+0Rhc3NcPS297V9UJY5MNjltMqjqJ/96i3Ls2dVZPpMBipDdGHta9OIaOvRDzijK0P1FlKO8T1SubAnEe8xKNbBWVaK6yuSYydAzXjWy+g81vE9UnoTi7zfXiBsYrp7Y7K9qO2dH1v7RKxUiBT+MSg6flDgC31jhu42qEmu67HmitcYF9YY/mSPcJxrKBYAd38gAQmdBTaJVbHmivZoutTUZviTtiabzEg5eoklO/qkTbTBo7Fn30qG2hmnrr10AsNpP8xIOPgPBPzWK5HdVLtpkjSeq09bV2HylCaaEwydeYeEQ+ca7KtEOK57ohH6wxs6rGsHK0jt4CUciMIdiSqftqUp81m3Sfyyx+xJRz9vaZUJwONCclnlRIljLfg6VcHhbu0vFPcAD60MjEkXVjcDZxUs4zhoICWk7IL+haomiKkcU4CUcZ9gXdhT4++mplKSpj7T6+XgJx1EDgcYwqTZJotIgavASzuacOn6AyndT2CFBUwTLfryEIw8DwToGCaKaQbThJRzaBoJVisZc1hT5sh8v4TBvIFij4u2Ay6JaQGyQyMcfUzQQ1qPTj0pJ002IFXgJ5y+iwQ2EtW6CseuTpJ9+jUydRuUlHFoGwpcffaY+qWY6bNmPl3BY6ECwR3NLpSidlpeINTy3hEN5LOdE6+8iHkrqNLWsycozSzjB4TRH5tdq6kpEjIx0lxWxpitPK+H4+MVRXG2VYVYtYme4n7lt0INKOL6RARQNhKKm5TPqJBhkbxv0jBJO9OFzFNe4tL9RJAmL26C7l3C841O/obe6Q9qPInmG+0tZk5U7l3BCaBoIqs6FaREIBrdB9zyFg3sGgnMeZ9lkuwjJSF9ZIWOycr8STijNO/cqZgZEeAbeMrcNnnejEo5PSjrNYvE7kRbsbYMnU92ihOObTPE+7FpNQ41Ik2fsbYPyv1ziWAbVy4dUpU0Gbf/U7FhjOzVdsbcNKoMC5RuufBPS9jCzkqqX5Ya26vnZwQ54fY21sbYNyvVyiX1hZxGbqCbK6zXVLVV1Ha9KwLZBE2vb4BnZeaKU26Qc9xp0zSZNa0tfw7tKYslXTeXowlS1poK5h5fX5RK0zllJ09dQs8mon+s26wuLS9re0dA9ozWU6woZfug4mbS1y+L24k2Kzr0VZS4ehFcPj1W1tBrLSntk8qxy8ETpnrPCKaw6p3a4NwtT/W31zb1FMnxUttva6bZJ4fbhpx3Y4er6ZrTjTROFMn9WZi/cpdsmRYA5eyaBnHY42XqiMrti3SE7foCx0UHkPVGW+kS940+cdMNV7mRmdFDWDShPlJU+UaxXxTCVqzfYEpUR9P+4m3v7xWL2LZgPS0/5yrPbpGjl6pCjg7K+K1AoFC8yM1+/uALziaeTkqmaDEsuZ5HbigrN0B4ddDH3tkKxLCozi7fvApkMGbT6RLduP4PcnJ4BmqODsp7kKFZYFpU5XP353yyQz6Zzdt5tXE67jNMbHXTz6n2FYr2ozPzvV6BwBW0yuJXL6XSuDjA6SJmXo1jNKlFlZj7/4z8w4QrQZHA7l9MeVi6DID86aE2Q2igqS7j6902Y54/YC9HJEH34PESE6C1tbqofN2q0Wr0ZbZvG2GkwNVXowF3sjbl6K+kg9UixgfWisoSrhzDhCsURPt3lHZ9K0uVUlZo0/VMLY43ttpubptsbB5f7AGAKbhtydbI3hty4+qNC4YioLOHqFyBPdEcauXvnybmcRaWG1snBAef65D4NN0zp61+SdjQMcDeGXP7husI6VkVlDlcf7jyWc9ZOyuVUlWsnR6VMs2sfm28rJ+hGFnUBlf1sBCl7ojLz24N7MLJSBuHuPybTy6nrnB/FcxZd/XHOQGpbKl0zd2iUzIdcu3JdYQfbojKHq/cFQEWNIxi9diIuZ61hqgNvL3hJx5SBSB7/lviNITceKuxjT1RL4Sof6HfLfjyDH0m4nKWtY5+IHDJQN+jxn7Jbnau39xAIUtkKhTRRmXn/CChcKYMCt7Lnclb0dxA9DvV7Ne4yyqpcfQ7zW2fd+17hAJuLyhyuip8gsG2QKZdzSPsG4vSmdgjrf/05Vy/BGwev5WYrHOJppkMsXr8GpCsXb5cg0MtZ1NSnFmFQd+P8lfY5V+/C+KY/53+vcJQXmQ7y+ukPQLI6HX7KaZcTfy9noXFUhGTMiM8e7V95z3ps73jL0SDlnKgs4Qqqn08ZG+nMiXUCLqeqbRh8hkEjNln1LP/zw5jeb7nzjpCoAPv50M4EiifWizobRRp0jGMy3Osxlv2cC1IuiMoSru4DNcgEOZCzHyLicjaPibQYwzTDYMGSqGFI/7OeFCicx2lRwfXzKQOiNynFEDmxrpqjOXlMXY2lhmPJ1fskv8vdlfZgAFEt9fNdhJBVxHbbPvu+GDJjNZo7RLp0YAlW5ly9Sdo7PH6So3CRp5mu8fyPqxDhKs3HxoCy1CgyH6hRi7QZMeCIt8NvJP39xQ2ddwCigurn2x9iLTkn1R5c9FZkgJJ+DPl6fZuExMNa5x2MqCwNMuT7+Q6uv1zJezuxI+uFUyIbtGBQlct+wg0pQUq6qCzh6hLpfr6ja9pDff0J3jbbIrJCP6LEZYlBaoniTKkQ7+cLWKWpZJKH97QiO2ipSMpe5x2oqMj3830+IeGTRLJhonyaIVE9g588rbTfeQe4/UH084WvaCqB6GiNwjciSwwCjybbtPMOXlRLDTLfEXrexOVsKoZsX5dGZAvIWS2OdN5RERW5fr4dS/55GuGFfceYqOqgFJWVf0eBF6yisoQrApXBry2d56SHCFeIrAGTVd3CG6TwJeqrmq7yCDz3P8yiCiC9uHrmRAXwA9CZzjtKonp//TIRm/vvXl4pxNd3kjlRzREPUrnZCiI8xbfxkWpkv7LNayv5Sx0XmBPVLGmfE48pRS5Svc8h9tPs2qVtXn7kd4Iq5kRFfrCUEod9TkhURA8HZmUL27xiyYvqLXOimoTI0y9KLvSRENXzDwVEqzQFgllU58ivrsYTE3ULj/NyGBPVbw8I15PNmjKL6mvya6v7xJqogGZ1Itc7PEmI6vmHh4RHwygfCUui+ifAyrKWqY9BFmlc60XHLyqAIVa37gvLovoWYF1NjInKgGC5hS9cuSgqkG7i/EvCiqj+BnGCZ5atKg38wPes/AKKogJpJP756gXhs6gKANZU186QpkboXLqOxw91XlSv/wQZYXzzR0H4IioB4sy9oYYZTZWMI0rgqNw4K6pFmGHrX8LUiqj+BTGFlB1bQY8oIrnGXOxckLoCM7j43q+CsFZUAshsW1aqytWILhK7YZwQ1eJtoPkc13IuCBtEJVy6BxGr1AxI6lMboo+Uvj1HRfX6BdQkoazcnwTBiqiEB3kAn14+QF1Tr8oQG7jcYeyYqBazoWaeobxfBMG6qIQLdwA2X10DbS9Bh5jBxbMQxY40teSBPUX+fUGwKSpBuA8wwqHI+IqmlaBl7EJCV05tbSoqsDmylgfIFgS7ohJ+ygX4N4a6qWmqSoeYw/kGmWJKJ2SsSerRBWEzUZmDFcSvwPIuOseyWL2W/aZzDTLFLMzmX5JUjg1JrROV8ODh/9k799im7iuOX2h4bcA6tUPTGO02jRUmDU1jncTUtRJjrJ1aqWWdVtFJm/YH07pp0lZ10x7aX8ed7NiJ7cROYucdx0kcJ3GekJKEEqLyCgRCSRpSNB4VUFpAlaiIRCftOg/iJH7cx+/8zrlOzt+QXN98fM75nd/3nCPjqYZOyEeq28bXQnoEMp3kW0SmA19KpOZDBeCSUi0bGpDZsXzs9pCNuWnX8wHxvqOp9NwD6Ww+VAC5Uga7H3r/bVlVhFvXbBYwu0Z3BSSTXOYWERoAdEIFUCHFj3YNDlxBJ+rj2/1dNquYM9BgACoZM6cS4XfnAhiACsAjJzyPHRnFrLJ/PHrwgs1SpmEANswXtUh1UqFADMAgVNKwso3138Sps384fv24zYKWSX7cSbGXe+Z6yZsHYAIqNQjKqni09w2PipVbXTl1tLfdZlVLr+frlD1xeLb2EXYAmIQKoK2kWdYDt/T1DIjxWBdvH+5tsVnc0uj5OuXORk848GlFCmBNGqgAYgGJ1TTbhe7D4xPGaw3Hzt8+OnjJlh3WnGpRW+eUqKVa7tOUtIEOSw8VQCQq9/FtXX39wzdP6NrMvf/iB+NHR8502bLLkgtkOiXum9GVneuACsDR5Cd4o13XhkYO3xk/8enpD1P4risXJ04MnB0+2H0g22iaza78C/V89bI2Yz04OVRFAERDFb8TDNop3+3Yob7eoe7uk/3XR65f7x88OdTbd+N4i21R2Fx3VRFwSv79aW74TEKlJleV+bYl03Xy6B8W1LTzQCAT7pD83bZnrJ2bggqgMVy6hIoWuzR07s7d02rMHhVW1QiV+P7jCUhObvWnUvqhUpMrT8cSMhmOGO/df1Bxe1eofMvZLPnTGEiljEClWrnUEoN1nFP3uTujp+dNIRmx8ieqbXIASIIKIFLlXIIowTldP5rgnOboTC1cIytpAFOmF6r4teBSFJx0TmcXOKcEe/uCVT+Z8VTKDFSLOwrGndP41Yx3lYMW/Xil4TwAEqjUKFi86M6C7YcmnZO2Uv9Na37GDo8DgAyqRXUW1OicEm+1rai6aa3LBTFmGKrJKJif9c6p5+zoZd0Da/Z3W++zVkfzABhAFa+I+rPUOZ0Z0emcEu3sIishiIUqruULNmebc/rk1GVT07ROj1nrM9vdbSDUTEMFEPMWZANOY6pzGrgqoBfj2JClPneB1wXADio1aS+qtbJzumHeOSXaLSt9eEMqBClQqVbvtlvSOb0/8KngRrEJ68i77MEKwDBRUAG4qqot5JxOqs7p4n6MvrAzVnkJ+ZUxAOZQqebrsIBzOiLeOXGa/qi9dN4IYAWoAMrr8hk7p49wnFOi3beGIlVQ6VwOVBxLV2O9qnOawG+xj9s7ByxAVChQDqgmHKq4pL3Ezsc5nZA6aLSHP1LO4giA9aBSk3ZvGbVzujcw8c5i2E+i02p8gG84UMUbu2qo3tuhm1RTkK8wH1rU6s4FsDBU8UFXVKqrlsHR/SRQHWSNVHVVHoDVoQLIK6ZK2g/cIdiwdJdz8Cv0OQCyASrK++axg1clM/XuIbZE2SXFPUlQxe+bqZL23vekLi5h2z5THXWBVFuLDhVAI9l984XDp+WNaed63mtygGTbKgGqeNJeR5S0t5+8K2fTIM/2mZC7HuTbDjlQUSbt127J2F3CsX2mzBshQApWPSYLKsqkvevIB9hMMWyfqW1qBBL7iyIRKsqk/cxHqJd/7Npn7CRxb9L2rZALVbzSXkj0mo/3nMdby9zNLe65qJCCnA2KbKgoK+3t3bc/w4GKV/uMnyruxW3XJoUCKjVpJ5PH4Gwv4dQ+Y3c3AKHtei3OlLKG5JdXUGnaW64L3+F1jM/WtwLCuBe3vz8yyZSyj+j3u6JUmva+T8Qm7ffYxL0iBylS8J11U0wpW8geweEjS9rPTWRd+4zpqVLm7bfLpplS1n2X8DHIxjG0C1s5yKN9pswbo0bqTy8qs7aF9FEIk/ajQsR8w0txb9Ke2pDAlLJiH/HjNLip1Hz9p0yr+ejbZ5pLKsiJgl07VitzbN0z1I8UIUvaD5w1p+Yjb58poI97qv1+nTLfnniG/rHIZqiZU/P1UMe9CAOkXviKksQ2vMDg0WKVVNNjjKv5SNtnsEYh6I18v1yhJLXHNnJ4vEgRVdJ+afiyofaZG4RSKRZxD/769BeVVLZ6y6McHpFuekzLoAE1H137jD/MIe7BQy9/U0lnf1vLgirIq6IafKxbzUfWPsMj7gE8tUnJYMt/8EMej+rwUK2C6zpyX8/ub5r2GbwRQHqR+rmiwV77MTAxupGPZ25q7pYnaZ/BHAGkD6lfK9psxY5VXLCi65vX2oJD0T7T4WHy52nyb//8KxqpUlY+/TkuWEFbHWc1n/z2mVBdOZMv/NQp/Sd716/QiNUTf3iIDVZ0F4M37mVS8w1Kj3t5PP4okeLZ64/ndj+uEatHtgIfq6AadtU18l9G7TO4o+/0fM/n96785uHl2rDatJERVnTDrvpSt+Bcltk+0yp3FEK6A1Sy/oJvvPpVjVht5RMEweGjStqP9/yPvH1G3gigjEluqqjxxq++rDEIfu9RRu4ql2pCbXt3MjWfvPaZGh+TuJfhyn/bS9qw2vAyJ6w4qfnOS2qfCYneGmP2wJfO9mrI2b/1tT0iVp+KNEo1XyJTn8lpnymLRpi8+EhUS1q7eXf6ytXq7+99Y0peUVLPCSseaj4p7TOkLaGZs/Ok9rP1qZF65fk9Cf+ytokTVnRrJcZmWnAktM80uxvYhAddY1V2pqgvvPSFby84f0Q4YUW3EXVo/K0333yrD/vX8JAIT12W1ep89u0/TRL3nvxS0owxUM4qClKq+bDbZ5hIpeJnIyM7rPbMp2r1+u2p/q2dzV3mTNJOpebDbZ8JsnnNMYMB4dmVc5h68kcW+QpNVdqjTluWGaOA0GB8Qt3OBKQe35b5Q1eyKjHQteAglc65fGkdptKL0IOC1fJXN2s6lnBRss746MqCLEGqlk3pPM9s3Wb3zJHvWQsmksRJu0AjnKa44GxtXsW2fSpBf36zLv/GLApacoEzyxKCmlCYf5Wh302qiHfqLs4FeZ0FXVXWTdpL2Xj+iKDr1ddVppZtM/I//VwU+NZO2gu5qO8gFhCVnv5LherrBv9vPq+KqJq0hyxGlJ2N+k5o3e+fivKwiZdSyCsKWitpL/CyKSE0iXxvwRxl2XOmfoKTjS5xJmm3iLviMKhspoosVK+dH8tRfmH2h7SyUZJNuyuvBZJ2PpdeuaKPzj7IUfaKKNw1OThhRTehVuOZm00qhfCmikGF6s9CflQZ8QDvhfIYtlGwgM2riiAUYqIQh+p1USeZEl4XOHSadotUpTC+d81hmITq3wJzT14XOHS74CxwwSeidL4wrk9lijnKP4Rm/txKV15G9832YAMbL44yA8w/fduUo6wS2/9rZ9OgPVOCqeWBVCubzqQYkhy7cuYPr0IVFv3DpW8Xz2BtDO6b+RxksHKC6tmUWoXKEUS4fmhghRW1SNTJJdl0oJ1eAgk1cBUqiGAEWD4FY/LSFZtXIe7KeMFHnONE4lBBDOV7XMBMdZXrbqWRIXC5MkabpJpfPPdbMwkVuHCcIrcOnDz5qqsgE0WnA/Gq3T0/tk9BBRGsWT3c7pulRkE2yhYXYmWlY+HN7zRU4PCiHaXd9YszCtrdTGp2mC2S/mSxKOfBYu4KvHl1zJJ2Q423+pGKZX3cs5Um/8POQgURN+IlKq+k3eFDrog2M0EKdbSlM5WvSIAKwIOYx3JL2jE7cLh4KVTBojOcMvzMgQoiXszas5NXpR0te+WRSzmKML1xabqMZi5UADE3bqLBqtIeQbhXZXLii6COdPanH1k2HyrVZ+KmG7ySdoenUDBS5TziHmbEqcmUyCyECsCHq24r4CWPqRd39clDiICsy9BQzk0GlXo4wsXK3uHj5K7KxeSzZSxSRpcXs14S0uSJk0KFj5WtOspJJOoyrzDiEdZxVT75GvU7KaCSgBWvpL2x2EzOHiph8Vlwq2/ab9xSQhWvsWNPJ2ClaXd4jKrX/FUc4h7yPYEeT7xGWZX2ngxZM5lfxylpd3n1u6uyAItW2jbcG80OXZ1S6aHCvd+e1hv5OJ0FGwJ66jsFbhaCfOSFULpLb5mgwqkQzkvaeTWiVlRq+8D+QAWLMyxy3CvTP0YkM1TiK4TJTqq8GlHLw8H0DtrpLmJyQ46s5DHU+6oFKhnJFbsZalBeFKhJEgqbS4NeDxfPiq28NziRTSNUwufNJHNXgVzgZpE2X9gbcJcEg0G3uzJa5IkxqtpGcNXRxseIaIZKSltmLS81H2vLxR3EZWaMiA6oQMYY4DJvbIkXLXXOQuRkxEwFUR9UMrZk25kNPmZo2F1BZvWUeqECaCxCj4KlvFbBMTPk0Vut5kUk+qGSEgW5jXzkYygjgBIv+gW01BmCSkYUXErak0WJYtxCtKAxmwahip8Fa7CxKqtcStoTLYa7kVXcfhzDUIGMET3cWnBI4x7uWECR+3HMQCVlJQyzFhyqOifyAFOxIiRzUIGM5evchl0RxD1kqYjoHY6moRKyIM5Saj7ZhjcCaPp2THjmKgAqKdOluU2olXbeQ962UxpGmMojBCqIT5JEn6vJS80nxbAlkkh74URBJWW6NDM1H7Yh725qReulFgeVFBkDNzUfoiG/TGcUbxqdSKhAyjZjdmo+lLgXxR2hhbt5QjBUUkpX+QzVfEINWSIcwp5tKByquKQdf5txYVMWl85x77/K8PehIkAFUrYZl2Vn0t6I3Lvkb5KQPOBAJWWbsT2YdUk7+pWxnLsJLKhAyjZjfzgvi5CqwL4yluXbEaFS3VUUfQxwKFuSdgeya5c5lQYVKpAyDL8mC9R8yKLHZrlTabChikuq8/GTdmur+ZBLCAWyX89adKik3DdbOWlHrsD4i6QrPDZKgArimyyWkvbkaSduCYHmy/ZHOVAtJe0pUinUS/gQjch/10pZUIEMkai15DHINRcyZeP/2bvWprauK3owwpYpJENkQ4DY0+mQAWrTAFOb2jCYDPbUTcepOzh2/aE4L2dqO03appO6j5l+uXyQEEIPEHoBFpIACfAIqh9YCbDNQ6DHPeucJeH9A+yry7pnr7P32muPC4WgUkLaK0YeA+7G6COZo3VqQaWk0l4J8hgwlZrWONx2plOoBpWBXT9XGZp2MJXSemVpGRM6QKVk+Tqxph3sAaTX36SlLYcpYanG4swE7SAq9odPa15k8vDpNqZEj6b/P/0CrmlnW+CMbvBFdJfq7nTuYEoM6mOrc3BNO9UC5xTW4TKj3X772cVdTInmeq2lGjhpl+RkYv5khtpKxfVvOWgZEG+iT+ujuKJom3YKkSjW3jkS0J/nezr2YErUjGomGh74IKpd80Ii7JafDMHaid4HdWJfNJ/Vnhrwg6j+ZW1vHrqPLE5RO2nvFAfDZtH+VA48afdpKTM7oLVzZ4Chyvv8rsgTHQ3VXxTMCSCVN8Swe2NmKNYt9Q7WiLzRNEJx5w748VlQ4aedQmb1TQ6hT21/szgq6vpqKS7e4IkSlVlwyguUZDhJXMGHLojjou2fHCXCNNz4WEkWnELO08ZIOlA9baJAnG7lOKzQOxF3hNtYNuLy4iCFswAqMZIzf/n4g0KoEm0NBklMwtV8yNHKFDDxLa2T9DOT27W3+Pn3agqgqm78exZYrcFHcOygL94FhFRslmTGcY9u9TeXfl0AVo2t51hgpWAEB8BNgDc+O81ulQPl3A//+PsCsLK106BKwQiOZAs14I1vfp1EzZpXv/PRlQKwGhvigRVezTcvj6QAhQiJDRL/wFTgCNXu54Vg1TZCBCu4mm86JIWzrwbtsLzHsp7g2OT+i68LwWqUCFbwERy723RXFlcG8dEMnaVXjvd8+OLSqWMg9Yc/3Z7wzxHBCq7mM6doB/q++mk8bVaLaHb8/f2jIPX+u7eIWuCvb+poh9pItMwTAacHs4dp1vLMFqciufVZ3lLVO39mPHm3rx2eMDoLlt72Xw3BGN80jUNSKbOvl6yHIPXZX9VUCMtuDIJJ+3yolLNhy4sTS/G42JToyPbxQUj9Kq9alQlW+LUSzlBR51XKEwIW0Xheeunq+nf2Yuqd2wwipCLOB6zxXK5nm4kmjwOWy+ONAS8OcZ7x6nLKhJ+8uQN+ff7Yay2VAWIqAB/BmdhMhOaShz4mR9oTdfuhmi8WqVROCl1eKecnrzLfT28VIrGrTLAy8CM4O2TZn3GHvOvRQNTrDbkTTrghYIzGYat8G5HzO5j64PNiWgVcNsB4NZ/yiNO0jE1tXf9kG1NXflbk3chLRa7WNmLVBCmiAo45R7Yfcph674sSSjlcWXAL71CrKHhK56Yd2f6bxdQvPyyxYU6VBVWQdnzwWHabX1b1v38J8dvflVwhJPPVxI/ggKkUTwkhKUFqsWQR1o/KamhwZcFKJu1LPCUE0V2zDAAADiBJREFUOWqQDYu4UjYHoFo7W6mknYdMyNqPEzQs4l0TtxWulTCT8Eq77HhJo76T9/L8qSyobptp6weTVLCqLNKu05j6QMiTGPqzdNsifm62mU5VunIoqrRL6MYEWFQIroA8pVoOU1lQ/WD+7sKVBSuCtPN0Y9IrEgeAwts82yL+Y/6fYnOXduDXSpikUjR3Z7kHu3fn0mER/5byz0WiXDsWtty0WZDnZE/JnQKff3W0WMQZSRrdTS6NKHIYoTqqUmnJQujw6x+WBVVaWveMrIFjeGbYIMXT4EtKnlL07Rm+yoLKmJV4ApI1cBTsgishMiwNvjXppDO49++eA5URlfivs20zxrvHFN3ZYqEH8lfLR/Zf1LZBJRVV0k0vqqLfHKcpdMoXC8WjB/7eO6Ay5uQmWLbFaLpLVzSOLcZcQv4JfIjx7ILKSMp+6zGubcY6S1eRZQdL3pN/Ic7kSeqvQGVMSbfsWVrnIu2rekpXfhbzO8R6nEReAv0aVIYjIL3HHw9ykfYp9VmQxUfYMZsAfC9H/DjLnnW3aYAiiazfvDaXUAmpMEk7xoUoBB99BFv27VCeAzgVsJF2dVkwOMmS9zbVZvX9oDJSIcQbn5l1cGVBnwJIsZSlIG5siWOzuuXgtvcFiF2Pk2tgEH8XJIFUCmLqVagzcAhUhpGE0A420r6I9LoKc0BqEmFsay+c1fOAyjA8mO+Yx3Fpt0sPmkMNc8yuQ9rp9mJ0O3lBlX0gzCWJjLRDtvFx3PgwZpa+4ljMEaCCwYqs0u7Y8FfjKbUAOYSXilXVHwmqLLcCsY4lLnnMorwsIcE5W0reyyCu8P7ixXJnjwYVbgGtnYu0b8nRq3H4vrowO5tLskk+FlTAkg6XPCYdMl0ejFDcQjCixFJP4AKgkuArc2SNIcSkaTfXyLCHKVZkY/Ker+QaY0FQ5eYzUTuHYkzWfI7ZmbJJYhXnvXJU9UWAysCoJrZjnsqOIV2G3ijuXmT4MtIYMf5MWSKL4kAFVI1kMwcTafe4S/njbIZnKdpPHohgumxVfbGgQrriR6h24Kx53MV9P063h+K5XZjRDl/57driQZWrXKGyYJxrENWxtZ45vpjiCy+TPDEo7/nNSKBLAhVSNZLg8lAzHKvLbn8+ZM1nQnM0RBCT98wuMSkRVEjVCJuHWu7HphfnoiF3OJOJzYTdK97l2S2inngKk/c2TTdoSwaVAdROvuQi7dxh3kU4f30kav6zKQdUyAkCZ9T1Fi9FBGhAVo4bRnmgQk4QbJIZHxOGA5P3pFlOlwsqA2kB5edagsOW9zC7UCVSWhOgyjLFddRaYx/ZCA5PJDGeplJH6UyBKtcwQ7mX22c8b4+rw6QDc/WW7NRjElQGSF2/26hNvcURvkgof4mJeVAB1TETcTKfdq15Lwj5eBHO2zJAte1ePoEi7ctvawy5kjPmsj0DKQzKAVXuTgJr4EyHJk84pFLrkLIgzPpXGqiyPx039hvbOMGkHVS6cUZh8ycSQZXL+7A9oWwOtcry3iwm70GNpOWCKndSo9zL7SewMejCvM04uGkhG1Q50g5zL4+cLNIOmpDDH/ryQZWNhRWUe3ncvXVSIAUaN1Gx+xMCKqh7eeIkNAbXMIsLFe1nBIHKAGqPyUZwAAGSCCt7bzhQIVVXVU3aQVIphdIPJKjMDGgWJu3RqmwMglrGL8Mq+11YUBnIfvNm9ZF20NnuU7xh8DEaVLC5NMYRHMrSuXrX8R48qHI0IYgi7b6qIe0YZZqWpWbDSkCFJO1VMYIjc+H63l68nt1dFxSBCikSzZL2yq60w6aM9byWIaEMVGDSXrkjOKASgrYDvLdDKajAlfZKJO3SnWxfadD0Uc1rQjGo3pL2/VQKo0KI6PS+HBYaQJUl7TB5TGWR9oXQJuIlZLSOIfVb9YAKW2kPVEilfREywBfXPDDZWpfDlGjQ9Zni5DH8mnaQd04koPcaXNu1fU4J8UQboTix8hiQPDaje/z2+8tiN+5rfIoTqWnHLFqK6zcKGO14hSlh7anCj3aCbq3E6+8IUpVy6meS16/WiTdhq9f7NDCbdrYFztnAzMYw2E40PBL7YkB7QniBG0Qlco9xQOwBKDZnnOurEQeiSz91hQ2i2jMkpSuMvYaTQqv4jU0cjnGCB8NtYWd48WlIoXOG4oM5+6lV5IuBeoKHc0VR7jG6RaKrQQA731yhqMf1Dl4UR8TYYwrW4QmjjiuNG1Eh07VLHHKf6/3N4uho6iap4sDcY5x6SlcQGcIMydLgdps4NqwDN0kuSRswy0flqivIhc/OMvExNCYKRjPJYYXbs5tr4Ki80waWENcOkl7ByCNRVFy+wQKrVABVY1C2F9yFsCqLzZJ0NdvHRLFR09VCUyuEqfnsKmQMawBuGGcRTdd2XxClRGPrORpY4UZw0B98Kir/yedZzJrP9dtEqdFxr5answFT8yGX4Dii8k8pP4sEv3e4WZQTF7p5YIUzu0INB6wtSz+l7DTW3w8Hm0S5QQUrmJoPYVvhkH/j47FOuvFtjTATtic83Aqo5kvIrSKuyedSPNufRu/WCbPR+WUvEaxgaj6J80zyhQharBDyX/ja24SUaBp8SAQrmJpvfl0KZ19YkS1E0GSFkCfqW21CWtRca2CC1QJmxauMv578VjiPF/PDwUYhNayXh5hghVLzmbtfpeT7vmZoNtM1XKsR8sPWX8+EK5Sar2yTlEW37LwX51FBj1y2Ckw0DlqYYDUVxWxEnXaXflwteKU/i5PGzvTHZxcEMGoGRplg5UCR9oi3lL5gOio/GcdmWV7ymb5mgY62bqbKFU7N5/cWdV45kl75iCLaaNHw7SmhIjqvfkd1XM0lMLCa8AWXjz2wHKvRMKB55OMZqx6CUanDceraHSZYAUdwJuYz3o3JwzewqeRyKIFxEaYpndf324TSsLZ1X2eClQtE2ne7g85EMOSNLudi3evO+FFWNRM0pXPDIrsqVZFZELfAWVUQlRC+GqgReoItC6Zhaj4VsURTQrje3SY0hrXtHtVdEEfa0ZGg2Q99c7hT6I7mPqp2M5K04zgbjfrOaPjbRcEQZBVRWKUdFdM8dsoqSwgF4x/PqPqCDpzZlXyVfIDF+L231Sa4orHrMdVxlX4RrwRIxWjMuR93NQm+qLs7QgUrnNmVNCrF043p+bROkIattYUKV6tu4uOKR9D545OngjlOP2jgOq68S5yQWqJZ+fWwr1Gwh/V+O1UDB7gLrhoafPpK5yU3cLhKV7hdcBXe4Dt375GonGArXbkCERZE8aw3+e5qs6iweMolaTdwlo+lFTpZtFJ3rp0SFRhN4zeoYJUO+TRDiqbQWdt+3yoqNOouD9UywUpv6YqGnd8c7hAVHR3DN6mOq6SufnOCpXbO0jI2qbr6iqvf7NWQBTMkMoTaocrNewdi7AlXv1lxFrQHSdoxLV92iCqKxq7nXA2coLIsaHeTiIRvPDgtqizYSLuiLBhfIenwUUmlqpe0K8iC9hAHpPikUlVM2hehFVG7mwNSN8ZPi+oOMtKehvUFWSA1crdOVH80dlFV2l0BZ/XS86rOe9Sk3bEhe7DrJQekno83iZMUHcNU883JcPXR829ORN6jlsdMyurf/L+9M2hNI4qisEmtWomL0JCgElcFDShUFxOM0Ai6VQYUgxuFBANtQoUsmnbvRmKDkCYNBrpJEWpJ6KI/sKWFlLSxOvpm3pn3zvcLBC9zz9x77pnPEEaEYGbdoydY9hghmr13iWATfpdY9ugLlj3mdN5QfYzcVx373n0CSSRP+9c5whjOIEJb9O1794kbfiRxNZglfap7dY5gwPMmQqynO9GeAiqr0c33W4uHxpcQMUDAJ6FyWM9AfQNn+GHal8Hb6yHEBCF48IpV9K9oxzpEHd30J8v2Xv8cI6pMTpqiK0R7DStPu3My7I+97epeDD6iHK6z7/2X1bS3g8Xoy3BwdXH2pxt2e9f9ByOLJYEehQCxGCzvdxA5/Xbyk0/vR1g/i31vStDSY3AplBdYLtMSOyyxYiax8rLCSrEm2sGCj+Gop1dZJdYJ5VqsnXF9b5N9b1bRbmKd4KD0PVdFAAGCdjcvH7/Bvjc3i9kCK+mOUpZ9TwwVrJx2aWxtRAKsBnGLQbCwKxm0Ab4ao5poT0a1Fu1LhzEWgQ1gufmcRKEIIDyw3HxOoVgEECBYbj4HUDACCFG0g31WwlbyJq1SDi0Ga1EtFoM8jXEWtC+i2oBX65NQSaK9rLRoL9AiLEm0hxUV7StVWqXk4VNRtL/myli2aI+AneDMvzJe5L+KINq9HJ0T0aCe4FhEozRFd+D+E5wnHCHgETtys2jnCIGiXbT7jq5zinahFOm+wxft7pq0b+/QfcdJu1BSdCFw0i54G3PMv8pVor2GlFBLKaUK0J72FqWUSwH7rASnUopwjHeI+iga4f/ickIJqPSYYJi3MUqMrsw8Skn504xTVIanuwj75u0jeqWUQv6+eY/qXMnRlcQ4BtrvVEVWhtpWlRd8KndBCcHHfOFTvwtGNhxd4Ky94HGMDsSd64LFNE3C7IJiT/hyjGzhu6DYp1SOS2P93gVtnYi2+ZTSE1/jrV3ynFpKXx6bdlja1wyu+PSmKXrE0OZTiniehQWaruq8NCa/CBltGhGI8MlVQ8AZKi+uyF+afXNvvhUfc1/JQ5p99u+hlnYopcgYcZWYxctXDFfoliLjCTTD1tbNz6smP8JHJqqrZGbamHb/gckFH5myrprpwqSZaDCVq/Btj1hiOWnkx3XCVjQRYdMjsymseLKxGy202r8fW2/qS/tVI9ukAYGIqK6FmC/GZkeIRH4Aq2RQGIWzs8IAAAAASUVORK5CYII=;" vertex="1" parent="26">
                    <mxGeometry x="10.75" y="19.5" width="68.64" height="59" as="geometry"/>
                </mxCell>
                <mxCell id="19" style="edgeStyle=none;html=1;startArrow=classic;startFill=1;strokeWidth=3;" edge="1" parent="1" source="8" target="26">
                    <mxGeometry relative="1" as="geometry">
                        <mxPoint x="394.7550000000001" y="495" as="targetPoint"/>
                    </mxGeometry>
                </mxCell>
                <mxCell id="28" style="edgeStyle=none;html=1;fontSize=17;startArrow=none;startFill=0;strokeWidth=3;" edge="1" parent="1" source="8" target="20">
                    <mxGeometry relative="1" as="geometry"/>
                </mxCell>
                <mxCell id="8" value="" style="rounded=0;whiteSpace=wrap;html=1;strokeWidth=1;fillColor=none;" vertex="1" parent="1">
                    <mxGeometry x="316" y="197" width="157.5" height="246" as="geometry"/>
                </mxCell>
                <mxCell id="5" style="edgeStyle=none;html=1;strokeWidth=3;" edge="1" parent="1" source="2" target="4">
                    <mxGeometry relative="1" as="geometry"/>
                </mxCell>
                <mxCell id="16" style="edgeStyle=none;html=1;startArrow=classic;startFill=1;strokeWidth=3;" edge="1" parent="1" source="2" target="11">
                    <mxGeometry relative="1" as="geometry"/>
                </mxCell>
                <mxCell id="2" value="Log Reader" style="rounded=1;whiteSpace=wrap;html=1;strokeWidth=3;" vertex="1" parent="1">
                    <mxGeometry x="836" y="290" width="120" height="60" as="geometry"/>
                </mxCell>
                <mxCell id="4" value="Log file/s" style="shape=process;whiteSpace=wrap;html=1;backgroundOutline=1;strokeWidth=3;" vertex="1" parent="1">
                    <mxGeometry x="1058" y="290" width="120" height="60" as="geometry"/>
                </mxCell>
                <mxCell id="6" value="SG #1" style="rounded=1;whiteSpace=wrap;html=1;strokeWidth=3;fontStyle=1;fontSize=18;" vertex="1" parent="1">
                    <mxGeometry x="334.75" y="211" width="120" height="60" as="geometry"/>
                </mxCell>
                <mxCell id="7" value="Service Gateway Layer" style="text;html=1;strokeColor=none;fillColor=none;align=center;verticalAlign=middle;whiteSpace=wrap;rounded=0;strokeWidth=3;fontStyle=5;fontSize=15;" vertex="1" parent="1">
                    <mxGeometry x="310.13" y="165" width="169.25" height="30" as="geometry"/>
                </mxCell>
                <mxCell id="9" value="SG #2" style="rounded=1;whiteSpace=wrap;html=1;strokeWidth=3;fontStyle=1;fontSize=18;" vertex="1" parent="1">
                    <mxGeometry x="334.75" y="287" width="120" height="60" as="geometry"/>
                </mxCell>
                <mxCell id="10" value="SG #3" style="rounded=1;whiteSpace=wrap;html=1;strokeWidth=3;fontStyle=1;fontSize=18;" vertex="1" parent="1">
                    <mxGeometry x="334.75" y="363" width="120" height="60" as="geometry"/>
                </mxCell>
                <mxCell id="17" style="edgeStyle=none;html=1;startArrow=classic;startFill=1;strokeWidth=3;" edge="1" parent="1" source="11" target="8">
                    <mxGeometry relative="1" as="geometry"/>
                </mxCell>
                <mxCell id="11" value="" style="rounded=0;whiteSpace=wrap;html=1;strokeWidth=1;fillColor=none;" vertex="1" parent="1">
                    <mxGeometry x="587" y="197" width="157.5" height="246" as="geometry"/>
                </mxCell>
                <mxCell id="13" value="Load Balancer Layer" style="text;html=1;strokeColor=none;fillColor=none;align=center;verticalAlign=middle;whiteSpace=wrap;rounded=0;strokeWidth=3;fontStyle=5;fontSize=15;" vertex="1" parent="1">
                    <mxGeometry x="583.63" y="165" width="164.25" height="30" as="geometry"/>
                </mxCell>
                <mxCell id="20" value="&lt;span style=&quot;white-space: pre;&quot;&gt;&#9;&lt;/span&gt;&lt;span style=&quot;white-space: pre;&quot;&gt;&#9;&lt;/span&gt;&lt;b&gt;&lt;font style=&quot;font-size: 17px;&quot;&gt;Log Queue&lt;/font&gt;&lt;/b&gt;" style="html=1;whiteSpace=wrap;container=1;recursiveResize=0;collapsible=0;strokeWidth=5;fillColor=none;" vertex="1" parent="1">
                    <mxGeometry x="-46" y="273" width="249" height="98" as="geometry"/>
                </mxCell>
                <mxCell id="24" value="" style="shape=image;imageAspect=0;aspect=fixed;verticalLabelPosition=bottom;verticalAlign=top;strokeWidth=5;fillColor=none;image=data:image/png,iVBORw0KGgoAAAANSUhEUgAAAdoAAAIECAMAAACJ5h9fAAAACXBIWXMAAAsTAAALEwEAmpwYAAABHVBMVEVHcEz////////////////////////9/f3////////////////////////////+/v7////////////////////+/v7////////////////+/v7////////////////////////////////+/v7////////////////////////////////////////////////////////////////+/v7////////+/v7////////////////////////////////////////////////////////+/v7////////////////////////////////////////9/f3////////////////////+/v7////////+/v7+/v7////+/v7///+3K0wvAAAAXHRSTlMAMxgaTbHK4RyA/eOWr+X55AFnS0gWs4Fk4fytTgR/FQW1+HuY5zF99ukC386XMDUbkx5SIIVP3aqayMxig2gdajcLtwh48uxFXxLDiHKkuVi+nIJAIij9B9V4AbFUIMcAABcUSURBVHja7J1ndxNJFoaRrNSWhCw5ydnjgHG2BwfAiQU8O7vMcPYwnD1zdrr+/99Y0uBU3V2p1VXieb7S1cB9dasr3bcePQIAAAAAAAAAAAAAAAAAAAAAAAAAAAAAAAAAAAAAAAAAAAAAAAAAAACAIeGocUQQhozy9NlpLOKvdNY39gnJUNBriu+yfkesEZjAqTTjRCLCEy5RnIaIpwhRmIw/7IcfsEuYwqMbq/GEUAXGdKzKGcEKimasQZd4BcOfsR7zhCwUhKa0zIMC4T+xPm8IWwjEJpC3/vM2NqNC6IYyZz9zRez8ZsxY2pjgeU1krmz8mPB5zFZsQ48A+kvTSlq6ZH+Zt1M2rhJCX8lYhTqtn4o4daeP1WRPGU9LyNK3h8qtlKd2CGJYU1oRT9x5bqnJ1zYsSkl6bTx4dC/p0Z8Io4/UElJ2UvbwLGkbfn+8LH/6PUvJwVDRTMMZ6eM1AhlKf6w9VSKQgfTHiykNytIWI0TSNw70c7DNnnwQ9GQ6TegnOvs/3lE1+HDW+NiGwIzBcr9s5UIQSt+QjXdLJkOvBWIZwAA5s1FH0qhBLIdBWsnHVjD7CUDa08xGq5JWe8TSf2nrmY1kp+SOiaX/0m4bZe0rYjkM31rZetQksRwGaeuMkAOVdsSkEbZhvnGque9jnuowYM4kKnUy2uwibQhIq33K+knbJJS+sS/TaSy1ybmsSYtQBjGOipe0W5wQSe8Y1T1mUeNsVCC8kCr1Tq87Zrs2nB45bic8nXC2tU8cPSShBO+59OFfqR4IiH6CWp2u6nc2jtcN/t6jRgPn+0J6ZEk914Qjn9X9jcc3H2lRb81vIUI+TKWU197az1l0Y3nQF6l1vDCYtP2yMX+4GEXX6258wcZTauu51iAHdi29LEYV/54sCyOM7wecttmU1TJWwfgecV1TsVJWyclC1fgeEyrHrOdtG6VufM8Wkj9dssoBZC3PMS4Bc8qVsbLT2S9fxmS5SCYMlVVwOjjQfimjKae8yWveY2J830YPl7QNJOgovNfoJ0PeDmrB0VxZU+N7vrdO0TW8Hstz6M2JHKecaAVfZdHXwvh+GT1csjyqHvpSDv2Ayco0OO6UlTbf7Yzvp1HDLVtKi45qe+8Y33vGkqt8sjW+30QL9+Jupl0oPqH6mkzj+20nu4Wg+c1N0GVKPdxKxvcH/7KcXYEBl/fXp2ZWtdo7ML6nHjsvrIY1icb3D38ge4K15GKl1cuhms64N+GrS72Jl9LKxfrnn/Kn5zC+D0baiuby4XOM70ORVt4fp1gQrdAjByKtVKgN7R6cg1LeSdvVXzpsqd0jBQVLO+/I+J5VC++kbRms97fZIwhBWtn+0ZzJIgcq+CatzOh8PquRwCAwAGmNErDJ7s+wSnuIO3qQ0orso62LuKOHmbUzmY0iDiSHKe2pUdZeIMOwfmvZ+xkKaevcaVCMtFq7MMJkHoPx/UAYmX75oJRge03Z3mnGxDOZ1aj8uazFiX4xakPWtsHmK8b3eVPJOvQvFHxULwzKhHAtyRe1op/M0uYRSdKL9Hu/ML7PlRcKvl1qVRvSdB/XbUGZrSPU3Z2yL6d+jPG9R2NiEWvyR8rb5JY2K3rdMUW2TmiZlDcnXiP+MaHFO61fgqDG1h7TKudLeQeQXF0/q5Gz9McOGDcugm0rTmpTF6VqlOrlxVRsTkd7+nT/19BPfHIeaSx5aVe9vnz7XSWVFi8rGWtQ1A64YVTYSStuBlNdZfuKztxqFF2nmw+No40dndiahewMxKckSGVj8aVP7rkVNuYWETvqrhKsPOpY2TPEKWxsfJv6m9g1iFPQfDZ36I6tWPBXWW50smPFW2VZh7KjlbtCIp5zs8QFWjQ0FDJk8dGjKsoWsAqVLehcb/LLckSj0jKY23z1j3mBsn6Njj/pen6/gZ4J7mjZcBjOd9aW9PhuSycfGl/OnknPz9jYBZEwWZlvbKvps6vzM2I+O7ikTTNZ6yvI89C+/g9WFwdG2k1rE+Y/iuTE2yRlB0RKd3yQ1fZpal+edFStnHkzDLW0LignB7ib3fppcuv3aRPp1ENTVNK6YUrnVJqkTxZaBxZv6AmGxUUNovpKzbsWW3GltbsVmrPtyy6COKNkMja+k32Ws9KjpeMoio73GguI4Zaq9f53k1OIYfXHfftXEFw/pXUwEONYeKGcmK1VKP08qoS3SFouOtOa2fQHcqXuIuFKfGw9RDhZwc0oJQB/RlG685aEKjD82Qok4YyqrpHPtDz5sbktkCu5tLpGPpM2nmGQC5M65gXa/fr/CHBxVBx9JM0cpSBHLuSaNNxIWyfAxREhLdIibWC8cvStFYrHGaHoEXLFTdYeEuDiSDjNv6r5mgP5a7iXtECO3NTaJBw2ZzWqSNzs2STs6nFVWpEIJ9Im/EC446NI6i4OA0+yX+shLRe7elWONHrIvItqKsuTzJALSYf/dXZsk+pze4TXxyFyvGT/CoJbLG1rYQ6RNqyPrfKKVGIRp+qpyIXGZ5goDa5HVqvBTGmvMBI7adVvfac7Z/0r9HBIzc7QdNa4+ZqQ+RjVuIXLGclXBDxVaP08ubZ9P61dP8UpYQpR8u6RFbRNdY+qJ+7oZ10lstlAFhdMm5tMz2he9vK3sNlOj210yTdt05cdVK7ee3gUeUTRN4qb1hyQak3f1J/P3uXJ3VbqV4mMLiNNrmmbNKqJlCUau9XqrdatJNReW7OY0bPOPZii7moZI3//cRxoOqu+QJt80/aLur2Db8925w+1Da+/XVH6TNsom8J6W54oRvrU3KB+KbEKhZFyrpzlfz3E9q9GzdA2/y65KN4gTl7LjYXDLZiWrPmrLZYYloy5UkIIx9JybYgtT90I8Wma7Dpt8dG15LUTGZ59flXNsbZY6Vri4srEbzV+jq+wpZqzeG1vqjfVb2sSnZl6PWMxpIw4lrx10RvfrDOr6Nr6rtrEmNoWA5gxajeCukvmrS+de7V8yZdNcOzCnraxsE9fP3jZUmrCSuy0y6w35silobLybd200zl/yRq8pzQsP7aMOuXEU8dzmmfq2o7sNUA31eTspLzto+aJuueU/eXJppawInVuUtM9K9mhR86TssblwxlbM1Kh0iqKuvon1kFLXLXMFZl7bkL7gPMqTkV5k7nRJ9rZy0RSQzmDy1NZtXBLqZoibE1p1NoyqEpoU647EHo1SZfajEYUmzcNFiBKSDswLKJs5BUmcKEqSNqGpbRGqc7uz1BIe4gtYJDSiuzDTouYeYaZtTOZjSKlek7wTtpTI2kvkGEYvrXX7P0Mq7Trkkbc0BeCtCWTRsxrfZNW5rjcyiXVYcDSVg1k2kXaEKTtOdribaKCb9Ie6BtSSS8gaaGCb9LKq7L72i3wbvRPWu2zUbWYT20Y0l5q+j+ex0gbiLSP9AqiJ2L9HhxcSSv0pG3qnDE/j0naIrP2tVbjikZpZY0K24HSnbh3oOXw3w56ZMkZqUjVxBNcsF+1OM74TbFk45KXN6+ZrKYYBKKDcyLt2jyttP0ynqqtRqs7p4rV9uCGqSyPCcWjaPr1YfeskZHCLRsKQd9Ue5WlldQIYrhE1dpPyUh+xEZYwRUiA+2Lb/WWywqv27XRFjUcsqxl/aZiJN8xV/YAPdzxD83gKxjJLxsry0lGh8xrh7/q/ufyN3Po4Y6cjOTn+dAWzTOH3kLWPxkMcx3SMJyDRrloix4OMR7unKh0CILvbGFYmDQqzG+3tJYqGBu7xOYKAqWVXg0XbJYXXWK1IKi25qj6wd1BDT8+tDqDnh2FD67A3sAtfUtpFfeBRtatfcbAXdJ+yrTTer2+LeK0Ua5yrlVTXtLkclPnpBx0GT3/fmtH5aUTI/lKTfq3CS42HWjSbt/LRkdG8vsbd68bmK2Sr/mQeMmH5ML4FWdG8keTlYsoejVJZXSOJHTHv2zJHn6OkXzw/XHSAj1G8uHQk+ds4vMYyQfDY6lUW8kNMJIPuj8+T2mAkXwgjGAkP6xcOLITGSOUvmFiCt/mYxsCMwauLxjJB7tgUTJpxLJSCAPkzEantsvI4Ku0OzighilttiX1KkuNYUpbz2wUcUcAWQs+SSuyp6htvrXDOozaZoQcqLSZp9iY14bAKatRw8qZwXowa8hBMG2w0hgbzZhgwJRlGbid2mRR9mtYI5RBjKPSKzRiozt8YOAI3QqtDnXsgdDXNJKfi7mzJeQeOfkc8rVypQF42iMn5O0cviIBMa5hIZ7ky3dGGAPqkSUlARv4TwRGSn3t2M0sqNROqXomiKGl7VfP8uvoej3dIRUHCl+xNZLnypbgBsmqdImgt9j5RrF87DM2RvK4oPqNhZH8AtHzGnMjeWy8fMfUSP4NofOeca4IGFqODZQdI2xB0NNWlgXGUJjXXLqoErJguNJSlu33oHisfkXAFdEazg9ui1CFR1tB2JmfiVOINDaz+mL8i8PlpxRha2y8h01FfjOP6BOaIWAkGrsz0Z1Zo/pjmDhqLB0vHu+VqYwGAAAAAAAAAAAAAAAAAAAAAAAAAAAAAAAAAAAAAAAAAAAApxyV946jKNr48I5YDA8nrfotS6JfCMhn/nr9YTG6w+Jvv4f1X/gwe89CrH77T3//7f7/7/DjD6Ltfx+6q60E9M8vS7wd70i78vDPD38QaQ8yQuM1P4/JjP/u/PvrD/988QeRthGwtGv/b+/sm6LIgTicfd/Z3XFdWFjk/VVWEIEDARERUQFP5bSu0LIq8/2/xrFn3SHSnUlndpLM0L9/3QndPpmkO+lJ4LM649AGjNZ3YcewMtqso20z2pyibUhGm0+0TyWjzSfax5LR5hStZLQ5RRtEjDanaCW/tTlFu6e+OIbRZhdtFWE6uX08Vr+6YrTZRUu4spjRZgptCQyiuoLRZh7tK4jsN8Fos482JFwgz2gzhfZRTFTMaDOLFphqPzLaXKAFblTsMdqcopVzjDavaHcZbV7RCkbLaBltGvr56Ubyi2k9RTvzeuwkCIKTsd17hXav1bwd0j4MSjlCW+odRrdSssnK9L1Au4xsnIebuUA7uOIe9HAiS2gPYEY/FH8gUO2sRr96fwn8uxoo0qg5WqTFOv5EMVQVfFRL6nT8jTdou8jbhzc/LqMYEDdwZ9WmaKM1r7Loww120AdG47yTKx2VA1u+oN2BX5JDtPEFLRR1/P22i/Y73B76as1FOuZsKByo+4IWNr2B/fxYl0XgB1pktkHjoSe6Bq35jnYGtruNtdzUZiFXfEA7DrdWTtpx/+8d3qI9pZHdkxT13aNFwr0u4l+V5F/gNdoz0GbscIFlSZRrtEiE+AJ2711EdO8vj9Ei38Wdwq0eUskO3luXaOEIUVZoSZI6EfAUbQ02eAZutEF3/Xq+/ewQLSmr2zFw7zrO9hPtFIls28R1+eGLM7TzhOpXQ7LXU46XaN/GV+knGq1+6pMztBrtJPfv0ke0F7CtO3CLoRye7KDtU2L/0yG65xztDinhO5ZZQ9sgZXX9HKHdiihkOzJraA8jNNMG9FLmB+0aLZWX7tHSdn5CUhxRlvlBe0pK5UUrxpf9p0tBECyFNYMXMJX92hfwH35n1nOj5vbg3MD3K+3If7RnpFT+D5UfjdVbhRXlQw/QdklZnXo4nrq1kVBabfiNtk3boH2Edmfwma5rtDs0siWFqV2TZMEhWnjcPMAam8bLDWib+7bQkuZZ1WYWFnqEvqKdIrqOuvAYN2DKHdr5iJKvC7FJ7biDAhs/0Y7TNmjRl3ZSaUHZGVraBi3+0h4p/fvoIdojIlnM9YM4Gxyh7RPJ1hEj4+oyp7xDW5aUVB5HFEsWq99IGS0cwF7gZobE6UljwnWD9g3ZkQWD0TjmvU0RLbwI9VZhJDwz72m4d+AVWnjBMJon89GyomsdbUjL6tBRbEnLv7ZHaN/REj48fhzTM6NqGe1bMlnYxIaeex2P0MKWrKlaalGWrRJtmSZHe2EQFUTGY5IAy+cdoQWDx2grPdfFhD20S9gilNLAAvTEhkjWdW2j/SFIW+8q41dFMt9TQftBULO6gZbj9pjUGvUC7cISMeHDp1qCIV1raLcjA7Lg8viCSNh1baOVJmTFKjUs0fE9FbTkfB01j+LeUeQr2qO4hh4ADxUoloRO0Rotq4ikXdcHtOMi7V4Nxim20Crz9X81Bjx0RPKv4Sfa0KhTTtFMidyhnYk17jnwVIfk3qyXaC/NxpsRmilNZ2g1jFtKOiiB23vu0Wq0sws8tkUzZdsV2kMN417qGkfq/B4MyGbtEE157uytDYyGlO1coK3aQDvnbq6NP+jobjv4kZ+I9v2MkEcM2tkf0iaUjeTHAG1spq/RhBd5bWdYXPxE2zTgMpY9tOvfoWLT9NECt0WkgvbMZLqtmYzi3qH9KAym2yEMyM8svbUX+5IezgPtPMvcXBvtiwp9uh1CGNWz9NaeCIPpFmjnVfYi5Bqy99pJGe2Upbd2Fa6FqVKXyLcziRYyQz3dDmHJYtJelUWVPCyFBqGXf6tRg//PHrlfA7+fSNyrU6uNImcBQeJRKfClorFJ7ddGCx1Odn4GaKHvwZXDUjkx2qY3dcjUurf1pL5vWy1WXSUOS1AssZx0UHKEFryNfRFvqJJ0K95yiTl10S3pfnTXH7Twx1x48elIwhH5mWW01OkW+nWR4F/DI7RikVQitZWwWzdto52mZQHVZLVfRekTWviAknlKtx5P6HqqX+qFpOl2JFnXfegVWrjse5GQ1BN8f2QfLbwwM0LoupH2jDMn/UIL06pQurVuWo98P53ygQekLAD8se7uj/QNrSBVJJtt9CpdTxltjzIshdJ8WFryD22BMt2abfSiSbEFtHDshgxLm8Z1VfiBFi4PF2oRKu0nIvLKs1DkWTbQkoYl+NPpWfMxyfGRYIuEwBc2P/aTC+zkVhtoKcMScjBcN9a/vp9o4QzoMWE2iuLYKu7vSv8gvwphukWMPDIm6/j4zQn96KFuVDCoOjgqfbTwMFshdN2YlQvlwVGOD80FM6AGIS+XqhMfSsrzhS2gJUy3aNftl8ixsRdoYd9bxB46KkgvgkW0Pf3pFr+PC3lxR2MKKV2jhUONAs13aGO+GHs8pQ20cAbUpoW613CLeps9XqFFDjmm+i5lM7hxv1MONY4MtoKWMCxtqIyNwvJNEl8MdC6ec39jSFt7uu3FerNfq9XWpebtVnbQEoalOIMjuX7t377UlHu0a/r92uT2Jtdo4QwIbLMwVPd8uMJpRLtfz2cRLZwBgcNSK29okdPYCHs4fqPt6A9Lk3lDSziAcTyDaJGFGaPpNnNo4ZQVPPLrMDLz88QhWnhhBmx2zRDjJ1/RIjfSloYXSsVdl5guWvhlBKfbN2ZoPb5QvD2k7BZR7CWnKaMt6E+3X0z8ew3Fal7fFQ9XyByQPW/HXk2cMlok9i0Mqe+OenyhOJYBBZS9TRVZ12jhrWm4ZfKF4pfCa7RIBgTveuyRyTpHu0YYlrCzuVXr5z6jpR1B36TMsz6gRTIg5OeUy1x3hPdoi5R+re98IPxAi2RA2Gas7n2njXnhP1okA0Irv1Z1PH/4X+HvrCW0ikI10rAkSloD09+KxlNFe3X3750Lqu/fhDHc6CYE/aRrCgXtObB2gLu3CYZHZ/gwthLn37jS7Kt00dZ+0/lXxc//7Nfuqq8qSB1VBZPVX/evPy9qmhLdsQA/Kf7r+e+/XfyssHbjyV33VlSf93c2NKYazOx00drQcRXc2XwwInKh0nJDQhvQlU1xH9SZbq20b/xfD1+VcuVfsfdy/Re6zdaeuG/ardd38+3frmCxWCwWi8VisVgsFovFYrFYLBaLxWKxWCwWi8VisVgsFovFYrFYLBaLxWKxWCwWi8VisVgsFovFYrFYLBaLxWKxWCwWi8Vipad/APRNOrLGAkGlAAAAAElFTkSuQmCC;" vertex="1" parent="20">
                    <mxGeometry x="3" y="2" width="88.19" height="96" as="geometry"/>
                </mxCell>
                <mxCell id="34" value="" style="group" vertex="1" connectable="0" parent="1">
                    <mxGeometry x="605.75" y="367" width="120" height="60" as="geometry"/>
                </mxCell>
                <mxCell id="32" value="&lt;b&gt;&lt;font style=&quot;font-size: 17px;&quot;&gt;LB #3&lt;br&gt;&lt;/font&gt;&lt;/b&gt;" style="rounded=1;whiteSpace=wrap;html=1;strokeWidth=3;" vertex="1" parent="34">
                    <mxGeometry width="120" height="60" as="geometry"/>
                </mxCell>
                <mxCell id="33" value="" style="shape=image;imageAspect=0;aspect=fixed;verticalLabelPosition=bottom;verticalAlign=top;strokeWidth=5;fontSize=17;fillColor=none;image=data:image/png,iVBORw0KGgoAAAANSUhEUgAAASwAAAA/CAMAAABtlgXGAAAC91BMVEVHcEwAlwAAnAAAnQAAmwAAmQAAmgAAmQAAgAAAmwAAmwAAmQAAmQAAnAAAnQAAmQAAjQAAlwAAnQAAnQAAmQAAlwAAngAAmwAAnQAAnAAAmAAAmQAAmwAAmwAAmAAAnQAAmgAAkwAAogAAmgAAmgAAmgAAmgAAmAAAmQAAnAAAnAAAmAAAnAAAlwAAmAAAmwAAmAAAmwAAnQAAlgAAmAAAmAAAogAApAAAnAAAmQAAmgAAlQAAnAAApQAAoQAAmgAAngAApgAAnwAAmAAAowAAmQAAmAAAnwAAmAAAnQAAmAAAlwAAmAAAngAAoAAAmAAAngAAmQAAmQAAqAAApwAAmgAAlwAAnAAAmAAAlgAAmAAAmAAAmAAAmwAAlgAAnQAAmQAAmwAAlwAAmwAAmQAAmgAAmAAAmQAAmQAAmwAAlQAAmAAAmgAAmwAAfgAAmQAAlwAAmwAAmgAAnAAAmAAAmQAAmwAAmQAAkQAAmQAAnAAAmAAAmgAAlwAAlwAAmQAAmAAAmAAAmQAAmAAAmgAAmQAAmQAAnAAAmQAAmAAAlwAAmQAAmAAAmAAAmQAAmgAAmAAAmQAAmAAAmQAAlwAAmgAAlwAAnAAAmQAAmwAAlQAAlwAAlQAAmQAAmwAAmQAAlQAAlgAAmQAAlwAAmAAAmQAAnAAAnAAAmAAAmAAAqgAAnQAAowAAmAAAmQAAmgAAmwAAmQAAmQAAnAAAmQAAmgAAkwAAmAAAmgAAmwAAngAAmgAAnAAAhgAAmAAAmQAArgAAlQAAnQAAmwAAmAAAmQAAmQAAqQAAjAAAngAAmwAAmwAAmAAAmwAAnQAAmAAAnAAAmAAAlwAAmAAAnQAAmAAAmgAAmwAAngAAlwAAmgAAmQAAnwAAngAAnAAAoAAAlgAAnQAAnQAAnQAAlwAAlAAAnQAAmAAAnAAAmAAAlgAAnAAAmAAAnAAAlwAAnAAAmQAAmAAAmAAAngAAnAAAmAAAqQAAngAAngAAnAAAmwAAmAAAmwDuZ2IKAAAA/XRSTlMAN5ri/+OcOQFXs/D8zn0aA73o5k4wleX/kSwyiMDOsWkUAlCiyp9NGHG32MUxKIHVvHYfBJn/////myPI///////xZv/Rif///QlZa/H/jfZ5nf//qRPZWw1Vi4O1L+chr346luzJQ23vHLMl9wXzcUS2B9p65o8Gk6lJrqwR6eVzzrCqYcX698xjxvlCh7H0q+GytazH6UqyC8AP2sLSFjToOt7uxNBubwXqCqhSSLvADrp9+CUS6r7quV0KxOf/HewqhZT1CAjtuL2KI/y3PkxfYGZwpoflJqWj+v30/Dzvy9pAPdlW8Ltt+JLcasmgfGfU3kb/3tWTppCEZyWTmQAAC4VJREFUeAGM0mOXXEEQxvFnk7Vt20ZXshedjG3Etm1+8MX0nTOeqd/r5v8UztRduFjf0NgEtuaW1rb2js4uVNLd09tQW18/KhgYHBpuGBlFgbHxicmp6Rmwzc7NLywsLjUj3/LK6tr6+Ab4Nrcmtnd293Bu/+DwSJA4Orw0C57Lx5pukCmvXEUF01Iw2Oz7KMvh1IRLaO4t5Hjmdc1p6rLXC6bRDs1mOm3a8ShyfH6pDzu1wME+eJqDbhkYDshQGGci0Xo6Vx+L82olkpIynLYUyko3OInDdg3lXI8KOieiN5DVfdN6ZiDArHXr9hFlaEN3cq2kqT4bvcurNRuPCTo3HLsH3LfVk2JIXq0HMbIEHi6jnHsasRw+akapx7ogRZh1sDyJGqQEnj5jteo7dFGGK/YclhcvTbLIu69YraRByrC5ibiNKFerGzUtvx6mLPkGZXQ9HSYWI/AWpd4dUZYWh/L+QyB36UfUtvFJtTpXLwagfJZEuVpfUEu3aqVoX/HaoBz5rXat74HcDtsPlHGguYjH9hMlfv02Kcv8k7b+Xl+f29TDaGXNlaL9RUbzP51y5P9atfa/ScoRf057uQvwtpG8j+O/vOtuGd+DLDOX65Os7cmyntPWbppzF3xlZmbwLZSZGdJs65SZmbnLzMzMTMex65H+o8xM6fuwUf48f8sTVSoCBpNljxFqjdWyWOFxoF06PmRIFprQDt56TQgx91fOfDWZN50otmrLWhl2A/yv5KCoYcjPVpUxNjtJsRAMQ1FrEos1GbTRuiGd2apkrCnp/dNUZpzDXSDoMreVYU9L74Fqxw02e3pS3sqwZsDwZM8MnvFkkc8lLDorr+TJksCiVtVYKwYLf9M9H3a2v1Zwpm240ubAIFpzq5wV1jzNUMhpdM6xaszPWBGsBY7luWdhgd9czbW9ML+DIdBSxWqkGyppi84ZFp0rgoWZCe9dVxTKWi0qA4OnFTxjrLwHwwZTgBu7I2h4mTqWtBXBal7Ha2Au5mkFvVYxfUkKMHha9/c5U6yRpuv3w6rAyQixG/unc4pVlLEiWBktU0IreL/XVL+jMggW0VLDSnVmf5wjS5ddyqloOfOg3BUpZSx5K4KFAjpbK71afYiVuaoyCBbRUsRq7HoXfTW4dTPZ7Vhz7rCK5ocZK4IlqbWWzlWxFQyxljxWr97sNyxcey24FY5gRiteu8q5wipaR+eKYGE91RpXWPJcVbwZFMu1vA2qY21gR8bSNoJE92xWeJMqlq8VmSseFtZvJhrVs1rB9vQ3IAWCRbRUsUpHAuwSagv82vpHZrT00apYalYECwXb6DdxmK+VfcVWUCyi1UcRa5HDrhoiy+DbdmaLQjt2KmKJrQiWUKv6ruLvIN+KYlGttUpY12kW+/Yb4F+T3RHmkdPOAVYOtSJYYq21xMrcsxV8LKKVVMBK1mbXo6HevUDiHx+Mlio4a6ycvYyVGAvr9xGVybswkM5VxopgWRHvQ0cn5bHyTdd7N0ZJpcoz76XvV8YiVprbKpBbMhYOUK2DNWdSq+bgY1nlbwt7H3xVUhZr2CF2PRodfg1KrMFh/XSHb2PepWY8oWdKxI9IYeUc9cxVyFhulYyFPKIV7RvxtSJYoRXHyhHa6UlJrOO2YZCDk/6lLjnx90wnTqSYO4Zm7+g0tFAGi1ppk7Y7BEuoFSJWBfDFOpk6tYdoLUxKYdXryw5++MGHcI4SY+U8TKxGYppOsIjWI7ZB488VxZpRH80fNb1PKZeUwbrbtR51WuB8YpG5IlZ4jGJRrVtL0jIfZa0o1uP0IAbR4mNd9oRrPXoQFwyLbyWFhbwB/lp2HWJFsLhaA4VYT+rsT1H0qQuGVZpa9YMsFvLKmZa8FcVCwWaq9ZAA6z7XgXd9Jlzteup3T/+3Bb97Zuyzvj33++IV0IKbns5004KHBFjLvFa52vOQx8K1L9hcLXtzAYRYYi0eVvAOzbUerQmmrS++FM2k+Wc6OfhvLwe07MMDgqXDMrpvfx4qWCjzCtWiVv5YWO+vxce6WjeYnKFgqlcxEbFOZ/hmvppelE7JtTLlCv4pjGPVD2pYKHPja2SrXm+9HrJYOEC1Wg/0x2p+KOpagdzM7hWutA2ZAk9cqryCX9adP1dKWNjVOde73nqjHeSxOH9o2gMG+mIFe7KTZb05FtnuShhS6Q9AFeutt/n7KzWsYYujhrdI9ZQ0Fl+r9UN+WKjpOkIaHVKITMnb4nKD1fAyVaxl1GoNlLGGrTQNmvlOSgKL0TLJbJ2iWOzpKeTcAgD1KwSUBkse6y26v1oDZaxd1YlVWquyAhYKHiGzdWueH9Yu916r98tI18aSwgqMr6GGRb+DoXA3SGJRK5retJ0CFg5QrQF5PCxyfCZmnp6TJuVzpQZrNBSw+Pur1VDGGuZrZcT0d9spYCGPO1t8rD5Lwq6z1N5DutGmzGBFOqphvS+YKzmsYX9mNo5qfdBOAQsPUa1Hrv3Q4WHhvjC7WtFuKIPichpGJAZrDpSwln3knSvGSgqLWlEth2gRLMFsvZAf5WJhtm4w6ZOQrp8eFQ/WMhWsj9/qTqw+gTLWLmIVsTxa79YXYAm0ouUrGFysY5+6lg+lCpFuUjXb0dgcxwnEyGBJYwUOlY96rfKhjNWEWEVHCLQIlvCQD0vCYuEz9/LhODJVrtv6ii3ZPh4z5oVSITJY0lixUIhaKWNd47Wy7FdTF9terc/ri7HEh3woVmp4hP0EbzwO34Kz2IfqPSGPRcsNfwExltjqlTLAjTwteSzktbblsNDNvXzYAN/uYh9pRUqrY1ErJawmXxKrF8oAwFc8LXksPES1+FhrXcuHQOQ9+DRsKbvPd3pCHYtaqWBd42clmC0xFgYSLT4WFmgWi9ClDPgNdg/WsrPAyo0TKzHWNTfwvoPp7qZaOwVYREuIRQ4uW/ozoLGXBdBrAMRYdK6UsZrwrcRaFEvym0ixyPUC8VJbwetr12DFp8pj0bm6GspYKV8rf62XFbDwUDlbBgsn3MuHVuBUQAZLFovO1TdQxmr3rU7WDGXgiq4gvntZHotqSZ1Tmtu31dekwffHyV+Rclh0roiVGKtdUz3mtQIg1NqpgIWHFtoSWOjnWj4EdE5hgw6WOha1EmPxra4H5LTksTCQaBEsct6RMCv6njwWtVLGqixnBdxuB7xajytgITnbFmPhJs0SG9HBEmMRq79AGevaqjax8n2+R8sc1UcBC30W2gIssnxQHiwxFrWSx2qhW5JWwOWmW8uwN6pgIbnQFmP9fnxIfrA+hjwWtVLGGqN7rL6Cf9M8WlpP71k0Aq3pjJbf9Yad7LMZLLy8g8HacYRgESt5rDJ3xImVUItcyZrBageRVnvbhbUYtJs7R+QHi9buZIhZe9xMrmSVs0JjFqsB7+JMy74RUNAKLcWhEHPwaz2EWqNZLf0r/0sCxFnh70EbyFzZE64dZK6RzlpNgrDBJuc0xH2avBXRio9Dy9O/DzGyOhPOllkWnAbeFpbC0g6C12cJI1PiODJXN2dfMiJjhZyIRa++72YrWQHH9axWYg2OjI9kNuKJ30MYe1p9TF9yCrw2apbUYN0HXpU7p4+wx7RDKaTLT1jMXMn08ekpsEcjXeEsLSZjxWhlZisWXjEM+MYJF0+ZvhpSBe8v/h89LPNoDfCr6sgPFu3pO53ioxZ/fQ+Zrp3+Q6B4MyWtUH+Imba66AgyvVf80kYkcTcgp2VHi7f2tZsAoNGPpu7o5kvPQLJg4/Gm7phadT8rFIVtXZSZ2ASf3q/omLqpVS9Ctrzbo2Y84tgXtYBkl1bX9WhU11fWRLa3/vvSuvn2XZAtf6+p/6ef0vvXgo0tLx66sRDy1Xuu0/9V6gj/GtXaLqpWPvx76uuf7yrt/fCVtk38ZazKZm7qNG7cz/3hbmqrn3/dn4J8TcoO/fm3/n0A/BuysAeX7XOYEwAAAABJRU5ErkJggg==;" vertex="1" parent="34">
                    <mxGeometry x="26.66999999999996" y="41" width="66.66" height="14" as="geometry"/>
                </mxCell>
                <mxCell id="35" value="" style="group" vertex="1" connectable="0" parent="1">
                    <mxGeometry x="605.75" y="284" width="120" height="60" as="geometry"/>
                </mxCell>
                <mxCell id="30" value="&lt;b&gt;&lt;font style=&quot;font-size: 17px;&quot;&gt;LB #2&lt;br&gt;&lt;/font&gt;&lt;/b&gt;" style="rounded=1;whiteSpace=wrap;html=1;strokeWidth=3;" vertex="1" parent="35">
                    <mxGeometry y="4" width="120" height="60" as="geometry"/>
                </mxCell>
                <mxCell id="31" value="" style="shape=image;imageAspect=0;aspect=fixed;verticalLabelPosition=bottom;verticalAlign=top;strokeWidth=5;fontSize=17;fillColor=none;image=data:image/png,iVBORw0KGgoAAAANSUhEUgAAASwAAAA/CAMAAABtlgXGAAAC91BMVEVHcEwAlwAAnAAAnQAAmwAAmQAAmgAAmQAAgAAAmwAAmwAAmQAAmQAAnAAAnQAAmQAAjQAAlwAAnQAAnQAAmQAAlwAAngAAmwAAnQAAnAAAmAAAmQAAmwAAmwAAmAAAnQAAmgAAkwAAogAAmgAAmgAAmgAAmgAAmAAAmQAAnAAAnAAAmAAAnAAAlwAAmAAAmwAAmAAAmwAAnQAAlgAAmAAAmAAAogAApAAAnAAAmQAAmgAAlQAAnAAApQAAoQAAmgAAngAApgAAnwAAmAAAowAAmQAAmAAAnwAAmAAAnQAAmAAAlwAAmAAAngAAoAAAmAAAngAAmQAAmQAAqAAApwAAmgAAlwAAnAAAmAAAlgAAmAAAmAAAmAAAmwAAlgAAnQAAmQAAmwAAlwAAmwAAmQAAmgAAmAAAmQAAmQAAmwAAlQAAmAAAmgAAmwAAfgAAmQAAlwAAmwAAmgAAnAAAmAAAmQAAmwAAmQAAkQAAmQAAnAAAmAAAmgAAlwAAlwAAmQAAmAAAmAAAmQAAmAAAmgAAmQAAmQAAnAAAmQAAmAAAlwAAmQAAmAAAmAAAmQAAmgAAmAAAmQAAmAAAmQAAlwAAmgAAlwAAnAAAmQAAmwAAlQAAlwAAlQAAmQAAmwAAmQAAlQAAlgAAmQAAlwAAmAAAmQAAnAAAnAAAmAAAmAAAqgAAnQAAowAAmAAAmQAAmgAAmwAAmQAAmQAAnAAAmQAAmgAAkwAAmAAAmgAAmwAAngAAmgAAnAAAhgAAmAAAmQAArgAAlQAAnQAAmwAAmAAAmQAAmQAAqQAAjAAAngAAmwAAmwAAmAAAmwAAnQAAmAAAnAAAmAAAlwAAmAAAnQAAmAAAmgAAmwAAngAAlwAAmgAAmQAAnwAAngAAnAAAoAAAlgAAnQAAnQAAnQAAlwAAlAAAnQAAmAAAnAAAmAAAlgAAnAAAmAAAnAAAlwAAnAAAmQAAmAAAmAAAngAAnAAAmAAAqQAAngAAngAAnAAAmwAAmAAAmwDuZ2IKAAAA/XRSTlMAN5ri/+OcOQFXs/D8zn0aA73o5k4wleX/kSwyiMDOsWkUAlCiyp9NGHG32MUxKIHVvHYfBJn/////myPI///////xZv/Rif///QlZa/H/jfZ5nf//qRPZWw1Vi4O1L+chr346luzJQ23vHLMl9wXzcUS2B9p65o8Gk6lJrqwR6eVzzrCqYcX698xjxvlCh7H0q+GytazH6UqyC8AP2sLSFjToOt7uxNBubwXqCqhSSLvADrp9+CUS6r7quV0KxOf/HewqhZT1CAjtuL2KI/y3PkxfYGZwpoflJqWj+v30/Dzvy9pAPdlW8Ltt+JLcasmgfGfU3kb/3tWTppCEZyWTmQAAC4VJREFUeAGM0mOXXEEQxvFnk7Vt20ZXshedjG3Etm1+8MX0nTOeqd/r5v8UztRduFjf0NgEtuaW1rb2js4uVNLd09tQW18/KhgYHBpuGBlFgbHxicmp6Rmwzc7NLywsLjUj3/LK6tr6+Ab4Nrcmtnd293Bu/+DwSJA4Orw0C57Lx5pukCmvXEUF01Iw2Oz7KMvh1IRLaO4t5Hjmdc1p6rLXC6bRDs1mOm3a8ShyfH6pDzu1wME+eJqDbhkYDshQGGci0Xo6Vx+L82olkpIynLYUyko3OInDdg3lXI8KOieiN5DVfdN6ZiDArHXr9hFlaEN3cq2kqT4bvcurNRuPCTo3HLsH3LfVk2JIXq0HMbIEHi6jnHsasRw+akapx7ogRZh1sDyJGqQEnj5jteo7dFGGK/YclhcvTbLIu69YraRByrC5ibiNKFerGzUtvx6mLPkGZXQ9HSYWI/AWpd4dUZYWh/L+QyB36UfUtvFJtTpXLwagfJZEuVpfUEu3aqVoX/HaoBz5rXat74HcDtsPlHGguYjH9hMlfv02Kcv8k7b+Xl+f29TDaGXNlaL9RUbzP51y5P9atfa/ScoRf057uQvwtpG8j+O/vOtuGd+DLDOX65Os7cmyntPWbppzF3xlZmbwLZSZGdJs65SZmbnLzMzMTMex65H+o8xM6fuwUf48f8sTVSoCBpNljxFqjdWyWOFxoF06PmRIFprQDt56TQgx91fOfDWZN50otmrLWhl2A/yv5KCoYcjPVpUxNjtJsRAMQ1FrEos1GbTRuiGd2apkrCnp/dNUZpzDXSDoMreVYU9L74Fqxw02e3pS3sqwZsDwZM8MnvFkkc8lLDorr+TJksCiVtVYKwYLf9M9H3a2v1Zwpm240ubAIFpzq5wV1jzNUMhpdM6xaszPWBGsBY7luWdhgd9czbW9ML+DIdBSxWqkGyppi84ZFp0rgoWZCe9dVxTKWi0qA4OnFTxjrLwHwwZTgBu7I2h4mTqWtBXBal7Ha2Au5mkFvVYxfUkKMHha9/c5U6yRpuv3w6rAyQixG/unc4pVlLEiWBktU0IreL/XVL+jMggW0VLDSnVmf5wjS5ddyqloOfOg3BUpZSx5K4KFAjpbK71afYiVuaoyCBbRUsRq7HoXfTW4dTPZ7Vhz7rCK5ocZK4IlqbWWzlWxFQyxljxWr97sNyxcey24FY5gRiteu8q5wipaR+eKYGE91RpXWPJcVbwZFMu1vA2qY21gR8bSNoJE92xWeJMqlq8VmSseFtZvJhrVs1rB9vQ3IAWCRbRUsUpHAuwSagv82vpHZrT00apYalYECwXb6DdxmK+VfcVWUCyi1UcRa5HDrhoiy+DbdmaLQjt2KmKJrQiWUKv6ruLvIN+KYlGttUpY12kW+/Yb4F+T3RHmkdPOAVYOtSJYYq21xMrcsxV8LKKVVMBK1mbXo6HevUDiHx+Mlio4a6ycvYyVGAvr9xGVybswkM5VxopgWRHvQ0cn5bHyTdd7N0ZJpcoz76XvV8YiVprbKpBbMhYOUK2DNWdSq+bgY1nlbwt7H3xVUhZr2CF2PRodfg1KrMFh/XSHb2PepWY8oWdKxI9IYeUc9cxVyFhulYyFPKIV7RvxtSJYoRXHyhHa6UlJrOO2YZCDk/6lLjnx90wnTqSYO4Zm7+g0tFAGi1ppk7Y7BEuoFSJWBfDFOpk6tYdoLUxKYdXryw5++MGHcI4SY+U8TKxGYppOsIjWI7ZB488VxZpRH80fNb1PKZeUwbrbtR51WuB8YpG5IlZ4jGJRrVtL0jIfZa0o1uP0IAbR4mNd9oRrPXoQFwyLbyWFhbwB/lp2HWJFsLhaA4VYT+rsT1H0qQuGVZpa9YMsFvLKmZa8FcVCwWaq9ZAA6z7XgXd9Jlzteup3T/+3Bb97Zuyzvj33++IV0IKbns5004KHBFjLvFa52vOQx8K1L9hcLXtzAYRYYi0eVvAOzbUerQmmrS++FM2k+Wc6OfhvLwe07MMDgqXDMrpvfx4qWCjzCtWiVv5YWO+vxce6WjeYnKFgqlcxEbFOZ/hmvppelE7JtTLlCv4pjGPVD2pYKHPja2SrXm+9HrJYOEC1Wg/0x2p+KOpagdzM7hWutA2ZAk9cqryCX9adP1dKWNjVOde73nqjHeSxOH9o2gMG+mIFe7KTZb05FtnuShhS6Q9AFeutt/n7KzWsYYujhrdI9ZQ0Fl+r9UN+WKjpOkIaHVKITMnb4nKD1fAyVaxl1GoNlLGGrTQNmvlOSgKL0TLJbJ2iWOzpKeTcAgD1KwSUBkse6y26v1oDZaxd1YlVWquyAhYKHiGzdWueH9Yu916r98tI18aSwgqMr6GGRb+DoXA3SGJRK5retJ0CFg5QrQF5PCxyfCZmnp6TJuVzpQZrNBSw+Pur1VDGGuZrZcT0d9spYCGPO1t8rD5Lwq6z1N5DutGmzGBFOqphvS+YKzmsYX9mNo5qfdBOAQsPUa1Hrv3Q4WHhvjC7WtFuKIPichpGJAZrDpSwln3knSvGSgqLWlEth2gRLMFsvZAf5WJhtm4w6ZOQrp8eFQ/WMhWsj9/qTqw+gTLWLmIVsTxa79YXYAm0ouUrGFysY5+6lg+lCpFuUjXb0dgcxwnEyGBJYwUOlY96rfKhjNWEWEVHCLQIlvCQD0vCYuEz9/LhODJVrtv6ii3ZPh4z5oVSITJY0lixUIhaKWNd47Wy7FdTF9terc/ri7HEh3woVmp4hP0EbzwO34Kz2IfqPSGPRcsNfwExltjqlTLAjTwteSzktbblsNDNvXzYAN/uYh9pRUqrY1ErJawmXxKrF8oAwFc8LXksPES1+FhrXcuHQOQ9+DRsKbvPd3pCHYtaqWBd42clmC0xFgYSLT4WFmgWi9ClDPgNdg/WsrPAyo0TKzHWNTfwvoPp7qZaOwVYREuIRQ4uW/ozoLGXBdBrAMRYdK6UsZrwrcRaFEvym0ixyPUC8VJbwetr12DFp8pj0bm6GspYKV8rf62XFbDwUDlbBgsn3MuHVuBUQAZLFovO1TdQxmr3rU7WDGXgiq4gvntZHotqSZ1Tmtu31dekwffHyV+Rclh0roiVGKtdUz3mtQIg1NqpgIWHFtoSWOjnWj4EdE5hgw6WOha1EmPxra4H5LTksTCQaBEsct6RMCv6njwWtVLGqixnBdxuB7xajytgITnbFmPhJs0SG9HBEmMRq79AGevaqjax8n2+R8sc1UcBC30W2gIssnxQHiwxFrWSx2qhW5JWwOWmW8uwN6pgIbnQFmP9fnxIfrA+hjwWtVLGGqN7rL6Cf9M8WlpP71k0Aq3pjJbf9Yad7LMZLLy8g8HacYRgESt5rDJ3xImVUItcyZrBageRVnvbhbUYtJs7R+QHi9buZIhZe9xMrmSVs0JjFqsB7+JMy74RUNAKLcWhEHPwaz2EWqNZLf0r/0sCxFnh70EbyFzZE64dZK6RzlpNgrDBJuc0xH2avBXRio9Dy9O/DzGyOhPOllkWnAbeFpbC0g6C12cJI1PiODJXN2dfMiJjhZyIRa++72YrWQHH9axWYg2OjI9kNuKJ30MYe1p9TF9yCrw2apbUYN0HXpU7p4+wx7RDKaTLT1jMXMn08ekpsEcjXeEsLSZjxWhlZisWXjEM+MYJF0+ZvhpSBe8v/h89LPNoDfCr6sgPFu3pO53ioxZ/fQ+Zrp3+Q6B4MyWtUH+Imba66AgyvVf80kYkcTcgp2VHi7f2tZsAoNGPpu7o5kvPQLJg4/Gm7phadT8rFIVtXZSZ2ASf3q/omLqpVS9Ctrzbo2Y84tgXtYBkl1bX9WhU11fWRLa3/vvSuvn2XZAtf6+p/6ef0vvXgo0tLx66sRDy1Xuu0/9V6gj/GtXaLqpWPvx76uuf7yrt/fCVtk38ZazKZm7qNG7cz/3hbmqrn3/dn4J8TcoO/fm3/n0A/BuysAeX7XOYEwAAAABJRU5ErkJggg==;" vertex="1" parent="35">
                    <mxGeometry x="26.66999999999996" y="44" width="66.66" height="14" as="geometry"/>
                </mxCell>
                <mxCell id="36" value="" style="group" vertex="1" connectable="0" parent="1">
                    <mxGeometry x="605.75" y="211" width="120" height="60" as="geometry"/>
                </mxCell>
                <mxCell id="12" value="&lt;b&gt;&lt;font style=&quot;font-size: 17px;&quot;&gt;LB #1&lt;br&gt;&lt;/font&gt;&lt;/b&gt;" style="rounded=1;whiteSpace=wrap;html=1;strokeWidth=3;" vertex="1" parent="36">
                    <mxGeometry width="120" height="60" as="geometry"/>
                </mxCell>
                <mxCell id="29" value="" style="shape=image;imageAspect=0;aspect=fixed;verticalLabelPosition=bottom;verticalAlign=top;strokeWidth=5;fontSize=17;fillColor=none;image=data:image/png,iVBORw0KGgoAAAANSUhEUgAAASwAAAA/CAMAAABtlgXGAAAC91BMVEVHcEwAlwAAnAAAnQAAmwAAmQAAmgAAmQAAgAAAmwAAmwAAmQAAmQAAnAAAnQAAmQAAjQAAlwAAnQAAnQAAmQAAlwAAngAAmwAAnQAAnAAAmAAAmQAAmwAAmwAAmAAAnQAAmgAAkwAAogAAmgAAmgAAmgAAmgAAmAAAmQAAnAAAnAAAmAAAnAAAlwAAmAAAmwAAmAAAmwAAnQAAlgAAmAAAmAAAogAApAAAnAAAmQAAmgAAlQAAnAAApQAAoQAAmgAAngAApgAAnwAAmAAAowAAmQAAmAAAnwAAmAAAnQAAmAAAlwAAmAAAngAAoAAAmAAAngAAmQAAmQAAqAAApwAAmgAAlwAAnAAAmAAAlgAAmAAAmAAAmAAAmwAAlgAAnQAAmQAAmwAAlwAAmwAAmQAAmgAAmAAAmQAAmQAAmwAAlQAAmAAAmgAAmwAAfgAAmQAAlwAAmwAAmgAAnAAAmAAAmQAAmwAAmQAAkQAAmQAAnAAAmAAAmgAAlwAAlwAAmQAAmAAAmAAAmQAAmAAAmgAAmQAAmQAAnAAAmQAAmAAAlwAAmQAAmAAAmAAAmQAAmgAAmAAAmQAAmAAAmQAAlwAAmgAAlwAAnAAAmQAAmwAAlQAAlwAAlQAAmQAAmwAAmQAAlQAAlgAAmQAAlwAAmAAAmQAAnAAAnAAAmAAAmAAAqgAAnQAAowAAmAAAmQAAmgAAmwAAmQAAmQAAnAAAmQAAmgAAkwAAmAAAmgAAmwAAngAAmgAAnAAAhgAAmAAAmQAArgAAlQAAnQAAmwAAmAAAmQAAmQAAqQAAjAAAngAAmwAAmwAAmAAAmwAAnQAAmAAAnAAAmAAAlwAAmAAAnQAAmAAAmgAAmwAAngAAlwAAmgAAmQAAnwAAngAAnAAAoAAAlgAAnQAAnQAAnQAAlwAAlAAAnQAAmAAAnAAAmAAAlgAAnAAAmAAAnAAAlwAAnAAAmQAAmAAAmAAAngAAnAAAmAAAqQAAngAAngAAnAAAmwAAmAAAmwDuZ2IKAAAA/XRSTlMAN5ri/+OcOQFXs/D8zn0aA73o5k4wleX/kSwyiMDOsWkUAlCiyp9NGHG32MUxKIHVvHYfBJn/////myPI///////xZv/Rif///QlZa/H/jfZ5nf//qRPZWw1Vi4O1L+chr346luzJQ23vHLMl9wXzcUS2B9p65o8Gk6lJrqwR6eVzzrCqYcX698xjxvlCh7H0q+GytazH6UqyC8AP2sLSFjToOt7uxNBubwXqCqhSSLvADrp9+CUS6r7quV0KxOf/HewqhZT1CAjtuL2KI/y3PkxfYGZwpoflJqWj+v30/Dzvy9pAPdlW8Ltt+JLcasmgfGfU3kb/3tWTppCEZyWTmQAAC4VJREFUeAGM0mOXXEEQxvFnk7Vt20ZXshedjG3Etm1+8MX0nTOeqd/r5v8UztRduFjf0NgEtuaW1rb2js4uVNLd09tQW18/KhgYHBpuGBlFgbHxicmp6Rmwzc7NLywsLjUj3/LK6tr6+Ab4Nrcmtnd293Bu/+DwSJA4Orw0C57Lx5pukCmvXEUF01Iw2Oz7KMvh1IRLaO4t5Hjmdc1p6rLXC6bRDs1mOm3a8ShyfH6pDzu1wME+eJqDbhkYDshQGGci0Xo6Vx+L82olkpIynLYUyko3OInDdg3lXI8KOieiN5DVfdN6ZiDArHXr9hFlaEN3cq2kqT4bvcurNRuPCTo3HLsH3LfVk2JIXq0HMbIEHi6jnHsasRw+akapx7ogRZh1sDyJGqQEnj5jteo7dFGGK/YclhcvTbLIu69YraRByrC5ibiNKFerGzUtvx6mLPkGZXQ9HSYWI/AWpd4dUZYWh/L+QyB36UfUtvFJtTpXLwagfJZEuVpfUEu3aqVoX/HaoBz5rXat74HcDtsPlHGguYjH9hMlfv02Kcv8k7b+Xl+f29TDaGXNlaL9RUbzP51y5P9atfa/ScoRf057uQvwtpG8j+O/vOtuGd+DLDOX65Os7cmyntPWbppzF3xlZmbwLZSZGdJs65SZmbnLzMzMTMex65H+o8xM6fuwUf48f8sTVSoCBpNljxFqjdWyWOFxoF06PmRIFprQDt56TQgx91fOfDWZN50otmrLWhl2A/yv5KCoYcjPVpUxNjtJsRAMQ1FrEos1GbTRuiGd2apkrCnp/dNUZpzDXSDoMreVYU9L74Fqxw02e3pS3sqwZsDwZM8MnvFkkc8lLDorr+TJksCiVtVYKwYLf9M9H3a2v1Zwpm240ubAIFpzq5wV1jzNUMhpdM6xaszPWBGsBY7luWdhgd9czbW9ML+DIdBSxWqkGyppi84ZFp0rgoWZCe9dVxTKWi0qA4OnFTxjrLwHwwZTgBu7I2h4mTqWtBXBal7Ha2Au5mkFvVYxfUkKMHha9/c5U6yRpuv3w6rAyQixG/unc4pVlLEiWBktU0IreL/XVL+jMggW0VLDSnVmf5wjS5ddyqloOfOg3BUpZSx5K4KFAjpbK71afYiVuaoyCBbRUsRq7HoXfTW4dTPZ7Vhz7rCK5ocZK4IlqbWWzlWxFQyxljxWr97sNyxcey24FY5gRiteu8q5wipaR+eKYGE91RpXWPJcVbwZFMu1vA2qY21gR8bSNoJE92xWeJMqlq8VmSseFtZvJhrVs1rB9vQ3IAWCRbRUsUpHAuwSagv82vpHZrT00apYalYECwXb6DdxmK+VfcVWUCyi1UcRa5HDrhoiy+DbdmaLQjt2KmKJrQiWUKv6ruLvIN+KYlGttUpY12kW+/Yb4F+T3RHmkdPOAVYOtSJYYq21xMrcsxV8LKKVVMBK1mbXo6HevUDiHx+Mlio4a6ycvYyVGAvr9xGVybswkM5VxopgWRHvQ0cn5bHyTdd7N0ZJpcoz76XvV8YiVprbKpBbMhYOUK2DNWdSq+bgY1nlbwt7H3xVUhZr2CF2PRodfg1KrMFh/XSHb2PepWY8oWdKxI9IYeUc9cxVyFhulYyFPKIV7RvxtSJYoRXHyhHa6UlJrOO2YZCDk/6lLjnx90wnTqSYO4Zm7+g0tFAGi1ppk7Y7BEuoFSJWBfDFOpk6tYdoLUxKYdXryw5++MGHcI4SY+U8TKxGYppOsIjWI7ZB488VxZpRH80fNb1PKZeUwbrbtR51WuB8YpG5IlZ4jGJRrVtL0jIfZa0o1uP0IAbR4mNd9oRrPXoQFwyLbyWFhbwB/lp2HWJFsLhaA4VYT+rsT1H0qQuGVZpa9YMsFvLKmZa8FcVCwWaq9ZAA6z7XgXd9Jlzteup3T/+3Bb97Zuyzvj33++IV0IKbns5004KHBFjLvFa52vOQx8K1L9hcLXtzAYRYYi0eVvAOzbUerQmmrS++FM2k+Wc6OfhvLwe07MMDgqXDMrpvfx4qWCjzCtWiVv5YWO+vxce6WjeYnKFgqlcxEbFOZ/hmvppelE7JtTLlCv4pjGPVD2pYKHPja2SrXm+9HrJYOEC1Wg/0x2p+KOpagdzM7hWutA2ZAk9cqryCX9adP1dKWNjVOde73nqjHeSxOH9o2gMG+mIFe7KTZb05FtnuShhS6Q9AFeutt/n7KzWsYYujhrdI9ZQ0Fl+r9UN+WKjpOkIaHVKITMnb4nKD1fAyVaxl1GoNlLGGrTQNmvlOSgKL0TLJbJ2iWOzpKeTcAgD1KwSUBkse6y26v1oDZaxd1YlVWquyAhYKHiGzdWueH9Yu916r98tI18aSwgqMr6GGRb+DoXA3SGJRK5retJ0CFg5QrQF5PCxyfCZmnp6TJuVzpQZrNBSw+Pur1VDGGuZrZcT0d9spYCGPO1t8rD5Lwq6z1N5DutGmzGBFOqphvS+YKzmsYX9mNo5qfdBOAQsPUa1Hrv3Q4WHhvjC7WtFuKIPichpGJAZrDpSwln3knSvGSgqLWlEth2gRLMFsvZAf5WJhtm4w6ZOQrp8eFQ/WMhWsj9/qTqw+gTLWLmIVsTxa79YXYAm0ouUrGFysY5+6lg+lCpFuUjXb0dgcxwnEyGBJYwUOlY96rfKhjNWEWEVHCLQIlvCQD0vCYuEz9/LhODJVrtv6ii3ZPh4z5oVSITJY0lixUIhaKWNd47Wy7FdTF9terc/ri7HEh3woVmp4hP0EbzwO34Kz2IfqPSGPRcsNfwExltjqlTLAjTwteSzktbblsNDNvXzYAN/uYh9pRUqrY1ErJawmXxKrF8oAwFc8LXksPES1+FhrXcuHQOQ9+DRsKbvPd3pCHYtaqWBd42clmC0xFgYSLT4WFmgWi9ClDPgNdg/WsrPAyo0TKzHWNTfwvoPp7qZaOwVYREuIRQ4uW/ozoLGXBdBrAMRYdK6UsZrwrcRaFEvym0ixyPUC8VJbwetr12DFp8pj0bm6GspYKV8rf62XFbDwUDlbBgsn3MuHVuBUQAZLFovO1TdQxmr3rU7WDGXgiq4gvntZHotqSZ1Tmtu31dekwffHyV+Rclh0roiVGKtdUz3mtQIg1NqpgIWHFtoSWOjnWj4EdE5hgw6WOha1EmPxra4H5LTksTCQaBEsct6RMCv6njwWtVLGqixnBdxuB7xajytgITnbFmPhJs0SG9HBEmMRq79AGevaqjax8n2+R8sc1UcBC30W2gIssnxQHiwxFrWSx2qhW5JWwOWmW8uwN6pgIbnQFmP9fnxIfrA+hjwWtVLGGqN7rL6Cf9M8WlpP71k0Aq3pjJbf9Yad7LMZLLy8g8HacYRgESt5rDJ3xImVUItcyZrBageRVnvbhbUYtJs7R+QHi9buZIhZe9xMrmSVs0JjFqsB7+JMy74RUNAKLcWhEHPwaz2EWqNZLf0r/0sCxFnh70EbyFzZE64dZK6RzlpNgrDBJuc0xH2avBXRio9Dy9O/DzGyOhPOllkWnAbeFpbC0g6C12cJI1PiODJXN2dfMiJjhZyIRa++72YrWQHH9axWYg2OjI9kNuKJ30MYe1p9TF9yCrw2apbUYN0HXpU7p4+wx7RDKaTLT1jMXMn08ekpsEcjXeEsLSZjxWhlZisWXjEM+MYJF0+ZvhpSBe8v/h89LPNoDfCr6sgPFu3pO53ioxZ/fQ+Zrp3+Q6B4MyWtUH+Imba66AgyvVf80kYkcTcgp2VHi7f2tZsAoNGPpu7o5kvPQLJg4/Gm7phadT8rFIVtXZSZ2ASf3q/omLqpVS9Ctrzbo2Y84tgXtYBkl1bX9WhU11fWRLa3/vvSuvn2XZAtf6+p/6ef0vvXgo0tLx66sRDy1Xuu0/9V6gj/GtXaLqpWPvx76uuf7yrt/fCVtk38ZazKZm7qNG7cz/3hbmqrn3/dn4J8TcoO/fm3/n0A/BuysAeX7XOYEwAAAABJRU5ErkJggg==;" vertex="1" parent="36">
                    <mxGeometry x="26.66999999999996" y="41" width="66.66" height="14" as="geometry"/>
                </mxCell>
                <mxCell id="43" style="edgeStyle=none;html=1;exitX=1;exitY=0.5;exitDx=0;exitDy=0;entryX=0;entryY=0.5;entryDx=0;entryDy=0;strokeWidth=3;fontSize=18;startArrow=none;startFill=0;endArrow=classic;endFill=1;" edge="1" parent="1" source="37" target="20">
                    <mxGeometry relative="1" as="geometry"/>
                </mxCell>
                <mxCell id="49" style="edgeStyle=none;html=1;entryX=0.5;entryY=0;entryDx=0;entryDy=0;strokeWidth=3;fontSize=16;startArrow=classic;startFill=1;endArrow=classic;endFill=1;" edge="1" parent="1" source="37" target="46">
                    <mxGeometry relative="1" as="geometry"/>
                </mxCell>
                <mxCell id="37" value="" style="rounded=0;whiteSpace=wrap;html=1;strokeWidth=1;fillColor=none;" vertex="1" parent="1">
                    <mxGeometry x="-325" y="199" width="157.5" height="246" as="geometry"/>
                </mxCell>
                <mxCell id="38" value="EN #1" style="rounded=1;whiteSpace=wrap;html=1;strokeWidth=3;fontStyle=1;fontSize=18;" vertex="1" parent="1">
                    <mxGeometry x="-306.25" y="213" width="120" height="60" as="geometry"/>
                </mxCell>
                <mxCell id="39" value="Enrichment Layer" style="text;html=1;strokeColor=none;fillColor=none;align=center;verticalAlign=middle;whiteSpace=wrap;rounded=0;strokeWidth=3;fontStyle=5;fontSize=15;" vertex="1" parent="1">
                    <mxGeometry x="-317.75" y="167" width="143" height="30" as="geometry"/>
                </mxCell>
                <mxCell id="40" value="EN #2" style="rounded=1;whiteSpace=wrap;html=1;strokeWidth=3;fontStyle=1;fontSize=18;" vertex="1" parent="1">
                    <mxGeometry x="-306.25" y="289" width="120" height="60" as="geometry"/>
                </mxCell>
                <mxCell id="41" value="EN #3" style="rounded=1;whiteSpace=wrap;html=1;strokeWidth=3;fontStyle=1;fontSize=18;" vertex="1" parent="1">
                    <mxGeometry x="-306.25" y="365" width="120" height="60" as="geometry"/>
                </mxCell>
                <mxCell id="44" value="UM #1" style="rounded=1;whiteSpace=wrap;html=1;strokeWidth=5;fontSize=16;fillColor=none;fontStyle=1" vertex="1" parent="1">
                    <mxGeometry x="-445" y="534" width="120" height="60" as="geometry"/>
                </mxCell>
                <mxCell id="45" value="User Management Layer" style="text;html=1;strokeColor=none;fillColor=none;align=center;verticalAlign=middle;whiteSpace=wrap;rounded=0;strokeWidth=3;fontStyle=5;fontSize=15;" vertex="1" parent="1">
                    <mxGeometry x="-463" y="488" width="184" height="30" as="geometry"/>
                </mxCell>
                <mxCell id="47" value="UM #2" style="rounded=1;whiteSpace=wrap;html=1;strokeWidth=5;fontSize=16;fillColor=none;fontStyle=1" vertex="1" parent="1">
                    <mxGeometry x="-307" y="534" width="120" height="60" as="geometry"/>
                </mxCell>
                <mxCell id="48" value="UM #2" style="rounded=1;whiteSpace=wrap;html=1;strokeWidth=5;fontSize=16;fillColor=none;fontStyle=1" vertex="1" parent="1">
                    <mxGeometry x="-170" y="534" width="120" height="60" as="geometry"/>
                </mxCell>
                <mxCell id="51" value="&lt;h1&gt;&lt;span style=&quot;background-color: initial;&quot;&gt;&lt;u&gt;User Data Model&lt;/u&gt;&lt;/span&gt;&lt;/h1&gt;&lt;div&gt;&lt;u&gt;{&lt;/u&gt;&lt;/div&gt;&lt;div&gt;&lt;span style=&quot;white-space: pre;&quot;&gt;&#9;&lt;/span&gt;uid: string&lt;br&gt;&lt;/div&gt;&lt;div&gt;&lt;span style=&quot;white-space: pre;&quot;&gt;&#9;&lt;/span&gt;loginName: string&lt;br&gt;&lt;/div&gt;&lt;div&gt;&lt;span style=&quot;white-space: pre;&quot;&gt;&#9;&lt;/span&gt;createdDate: time&lt;br&gt;&lt;/div&gt;&lt;div&gt;&lt;span style=&quot;white-space: pre;&quot;&gt;&#9;&lt;/span&gt;repositories: [&lt;br&gt;&lt;/div&gt;&lt;div&gt;&lt;span style=&quot;white-space: pre;&quot;&gt;&#9;&lt;/span&gt;&lt;span style=&quot;white-space: pre;&quot;&gt;&#9;&lt;/span&gt;{&lt;/div&gt;&lt;div&gt;&lt;span style=&quot;white-space: pre;&quot;&gt;&#9;&lt;/span&gt;&lt;span style=&quot;white-space: pre;&quot;&gt;&#9;&lt;/span&gt;&lt;span style=&quot;white-space: pre;&quot;&gt;&#9;&lt;/span&gt;name: string&lt;br&gt;&lt;/div&gt;&lt;div&gt;&lt;span style=&quot;white-space: pre;&quot;&gt;&#9;&lt;/span&gt;&lt;span style=&quot;white-space: pre;&quot;&gt;&#9;&lt;/span&gt;&lt;span style=&quot;white-space: pre;&quot;&gt;&#9;&lt;/span&gt;quota: int (50...300)&lt;br&gt;&lt;/div&gt;&lt;div&gt;&lt;span style=&quot;white-space: pre;&quot;&gt;&#9;&lt;/span&gt;&lt;span style=&quot;white-space: pre;&quot;&gt;&#9;&lt;/span&gt;&lt;span style=&quot;white-space: pre;&quot;&gt;&#9;&lt;/span&gt;usage: int&lt;br&gt;&lt;/div&gt;&lt;div&gt;&lt;span style=&quot;white-space: pre;&quot;&gt;&#9;&lt;/span&gt;&lt;span style=&quot;white-space: pre;&quot;&gt;&#9;&lt;/span&gt;&lt;span style=&quot;white-space: pre;&quot;&gt;&#9;&lt;/span&gt;reached: bool&lt;br&gt;&lt;/div&gt;&lt;div&gt;&lt;span style=&quot;white-space: pre;&quot;&gt;&#9;&lt;/span&gt;&lt;span style=&quot;white-space: pre;&quot;&gt;&#9;&lt;/span&gt;}&lt;br&gt;&lt;/div&gt;&lt;div&gt;&lt;span style=&quot;white-space: pre;&quot;&gt;&#9;&lt;/span&gt;]&lt;br&gt;&lt;/div&gt;&lt;div&gt;&lt;u&gt;}&lt;/u&gt;&lt;/div&gt;&lt;h1&gt;&lt;br&gt;&lt;/h1&gt;" style="text;html=1;strokeColor=default;fillColor=none;spacing=5;spacingTop=-20;whiteSpace=wrap;overflow=hidden;rounded=0;strokeWidth=2;fontSize=16;" vertex="1" parent="1">
                    <mxGeometry x="-424" y="779" width="341" height="331" as="geometry"/>
                </mxCell>
                <mxCell id="52" value="&lt;span style=&quot;white-space: pre;&quot;&gt;&#9;&lt;/span&gt;&lt;span style=&quot;white-space: pre;&quot;&gt;&#9;&lt;/span&gt;&lt;b&gt;&lt;font style=&quot;font-size: 17px;&quot;&gt;Users DB&lt;/font&gt;&lt;/b&gt;" style="html=1;whiteSpace=wrap;container=1;recursiveResize=0;collapsible=0;strokeWidth=5;fillColor=none;" vertex="1" parent="1">
                    <mxGeometry x="-374" y="674" width="249" height="98" as="geometry"/>
                </mxCell>
                <mxCell id="53" value="" style="shape=image;imageAspect=0;aspect=fixed;verticalLabelPosition=bottom;verticalAlign=top;strokeWidth=5;fillColor=none;image=data:image/png,iVBORw0KGgoAAAANSUhEUgAAAlQAAAIACAMAAABzWQL6AAAABGdBTUEAALGPC/xhBQAAAAFzUkdCAK7OHOkAAAMAUExURUdwTKcoKLcwJZAmJpEmJqc2NqwoKJEmJuEAAI8lJY8mJsYvKpAlJY8nJ8YvKsYvKsYwKpIjI8UvKpEnJ5AjI8YvKZImJo8mJsUuK5AlJZElJZElJccuLJAlJZQlJccvKsYvKsYvKsUuKsUwKZEmJsYtKMgxKo8kJJElJZAlJcMuKMYvKpElJZAlJcYvKsYuK48jI5ElJZAlJcUvKsYvKcYvKpAlJZElJcUvKZElJY4mJpAlJZElJcYuKZElJZEkJJAlJcYvK8YuKpAlJY8jI8YvK8UvKsUyKMYvKsUuKsQvKMcvK8YvKpAlJZElJcYwKZElJcUvKsYvKZAmJpElJccvKpElJZAlJcUxK5AkJMYvKsUvKsUvKsUvKpElJZElJcYvKsMwK5AkJJAlJcUxKpEkJJElJcMtKsYvKpAlJZElJZEkJJAlJcYvKY4mJpEkJMQuK8MuKJElJbssJ8UtK8MtKI4mJpEkJI4mJo4jI6YqKJslJa0rKLMqKbItKbYqJ6UrKKAoJ54nJbcsKJEmJsYwK////5opKGIbHMUwK5ImJponJr8vKpYnJpQmJsMvKrIsKaApJ6wrKMIvKrgtKaIpJ7wuKqUpKKgqKLQsKa8sKbUtKb4uKsEvKpknJp4oJ64rKKkqKMAuKrktKsQwK7otKacqKLArKJwoJ50oJ5QnJ5MmJaoqKKMpJ8YvKscyLZcnJsQvKpsoJsYxLLctKY8lI8g1MP/+/s5LR9RiXv35+dt7eN6EgdFYVM9QTMtCPfnp6d+Jhtduatp3c+u1s40kI/329uGRj//9/ck6NfDIxtVmY9ZqZu/Ew/fg39NcWNBUUOahn+CNi9x/fPvw8Pbb29lzcO7Av+mvrcg3Mso9OOqysOKVkvjm5WMbHPHKyco/O/fj4vz09PPS0fHNzIskI81IRNhxbsxFQfrt7eisqueopf76+uSbmey5uOSem3EeHuakomsdHWccHe29vPPU03cfH+OYlfTX1n0gIIIhIPLPzv78/PTZ2IUiIYgjIZywpiYAAACEdFJOUwAGCP7iAwzoAeD3ZtQTS5xaD1Im+rYY8S2SOqwcKwondZLrOCD8FBxzqPWBRcCvvPN9mMhEPYJY3l78eLPMh9m3e5bF7fiNGdPn4yBwz1LwTDLYMqNgP2kP56qGoqduNsL5jcgj3rzxbZ4vnGK/6u/a1mb61fr4Mdze8Orz9vf1Hv375ypRf0YAACAASURBVHja7J1bTJPZFsfRCIeEBAwJCQ9kuAUeJMEHIPGFB0m8mxhMSAxigomJvJhoxnmZc87bt7+C0aPoKDOgx6NUzjjqMA5SoC2UtiiXcr9f5aog18OIeJ2Z0wKjXNrS9tt77f21+/dcWr7df9Ze/a+11/by4nA49PAJjU8JOx4ekJaWFhB+PCzFP9iHLwrHVY4lZCSlH0AbOZCe5Be5lS8Qxym8g/3SjiK7RCWGB0bzleI4hG9oRmwEcoz9e/15xOJstuUFBhxETrEnyG8fXzeOLUIydn6DXCEu7BBfPc5GgncnIgkkhoXwNeSsTqOCY44iyaT78cSds0JozDmEh29iA3nezvEKCUtEOIlIivTlq+rRv/VSzigRds6H8Z+DnsoW/9Q9iAxRQYFb+AJ7XmqeHB6BSBKxN5ivsoclUucQeRL9jvGl9hC+2h6kRDDsSYv35gvu/tteQsBpBMmu3dwUdfNtb/dZBI6SZ+3uy1a4bY9n7Z6x7UUmHUE0ifPjDaPuxb6w84g6OwISuNfuLmwJjI1CbHA0jJec3YHgvRGIIaJi/bnJIG+O+SUi5jgYwzv6ZIt3/Ik9iEmUO3mHjCw5FLMLMQw3GWRoSe1EzBOXwk0G+VhSyUmnkSw4EsAb+mRB9OH9SEbsP8xNBtZzc//Uk0hmnDzBOxkY5lTMQSRLeCcDs7n5GSRflEHcE3WL3HyiiCldHTh+in+Rss/NyxqrdWzFq53buSfKRm4e73Ju3iXWLBgK2TIZwrknyoBvLiE3r6gRRbFyppR7ohx8vnm3uESdUSVZCoVNLZ3cE5U9yeGSWzkn1MuqEtvnmyUpqmy+UlT34vREM7gnCs6xDCw9LXPiZ0bbal1UlGnqleUNujGf7jrB+0Rhc3NcPS297V9UJY5MNjltMqjqJ/96i3Ls2dVZPpMBipDdGHta9OIaOvRDzijK0P1FlKO8T1SubAnEe8xKNbBWVaK6yuSYydAzXjWy+g81vE9UnoTi7zfXiBsYrp7Y7K9qO2dH1v7RKxUiBT+MSg6flDgC31jhu42qEmu67HmitcYF9YY/mSPcJxrKBYAd38gAQmdBTaJVbHmivZoutTUZviTtiabzEg5eoklO/qkTbTBo7Fn30qG2hmnrr10AsNpP8xIOPgPBPzWK5HdVLtpkjSeq09bV2HylCaaEwydeYeEQ+ca7KtEOK57ohH6wxs6rGsHK0jt4CUciMIdiSqftqUp81m3Sfyyx+xJRz9vaZUJwONCclnlRIljLfg6VcHhbu0vFPcAD60MjEkXVjcDZxUs4zhoICWk7IL+haomiKkcU4CUcZ9gXdhT4++mplKSpj7T6+XgJx1EDgcYwqTZJotIgavASzuacOn6AyndT2CFBUwTLfryEIw8DwToGCaKaQbThJRzaBoJVisZc1hT5sh8v4TBvIFij4u2Ay6JaQGyQyMcfUzQQ1qPTj0pJ002IFXgJ5y+iwQ2EtW6CseuTpJ9+jUydRuUlHFoGwpcffaY+qWY6bNmPl3BY6ECwR3NLpSidlpeINTy3hEN5LOdE6+8iHkrqNLWsycozSzjB4TRH5tdq6kpEjIx0lxWxpitPK+H4+MVRXG2VYVYtYme4n7lt0INKOL6RARQNhKKm5TPqJBhkbxv0jBJO9OFzFNe4tL9RJAmL26C7l3C841O/obe6Q9qPInmG+0tZk5U7l3BCaBoIqs6FaREIBrdB9zyFg3sGgnMeZ9lkuwjJSF9ZIWOycr8STijNO/cqZgZEeAbeMrcNnnejEo5PSjrNYvE7kRbsbYMnU92ihOObTPE+7FpNQ41Ik2fsbYPyv1ziWAbVy4dUpU0Gbf/U7FhjOzVdsbcNKoMC5RuufBPS9jCzkqqX5Ya26vnZwQ54fY21sbYNyvVyiX1hZxGbqCbK6zXVLVV1Ha9KwLZBE2vb4BnZeaKU26Qc9xp0zSZNa0tfw7tKYslXTeXowlS1poK5h5fX5RK0zllJ09dQs8mon+s26wuLS9re0dA9ozWU6woZfug4mbS1y+L24k2Kzr0VZS4ehFcPj1W1tBrLSntk8qxy8ETpnrPCKaw6p3a4NwtT/W31zb1FMnxUttva6bZJ4fbhpx3Y4er6ZrTjTROFMn9WZi/cpdsmRYA5eyaBnHY42XqiMrti3SE7foCx0UHkPVGW+kS940+cdMNV7mRmdFDWDShPlJU+UaxXxTCVqzfYEpUR9P+4m3v7xWL2LZgPS0/5yrPbpGjl6pCjg7K+K1AoFC8yM1+/uALziaeTkqmaDEsuZ5HbigrN0B4ddDH3tkKxLCozi7fvApkMGbT6RLduP4PcnJ4BmqODsp7kKFZYFpU5XP353yyQz6Zzdt5tXE67jNMbHXTz6n2FYr2ozPzvV6BwBW0yuJXL6XSuDjA6SJmXo1jNKlFlZj7/4z8w4QrQZHA7l9MeVi6DID86aE2Q2igqS7j6902Y54/YC9HJEH34PESE6C1tbqofN2q0Wr0ZbZvG2GkwNVXowF3sjbl6K+kg9UixgfWisoSrhzDhCsURPt3lHZ9K0uVUlZo0/VMLY43ttpubptsbB5f7AGAKbhtydbI3hty4+qNC4YioLOHqFyBPdEcauXvnybmcRaWG1snBAef65D4NN0zp61+SdjQMcDeGXP7husI6VkVlDlcf7jyWc9ZOyuVUlWsnR6VMs2sfm28rJ+hGFnUBlf1sBCl7ojLz24N7MLJSBuHuPybTy6nrnB/FcxZd/XHOQGpbKl0zd2iUzIdcu3JdYQfbojKHq/cFQEWNIxi9diIuZ61hqgNvL3hJx5SBSB7/lviNITceKuxjT1RL4Sof6HfLfjyDH0m4nKWtY5+IHDJQN+jxn7Jbnau39xAIUtkKhTRRmXn/CChcKYMCt7Lnclb0dxA9DvV7Ne4yyqpcfQ7zW2fd+17hAJuLyhyuip8gsG2QKZdzSPsG4vSmdgjrf/05Vy/BGwev5WYrHOJppkMsXr8GpCsXb5cg0MtZ1NSnFmFQd+P8lfY5V+/C+KY/53+vcJQXmQ7y+ukPQLI6HX7KaZcTfy9noXFUhGTMiM8e7V95z3ps73jL0SDlnKgs4Qqqn08ZG+nMiXUCLqeqbRh8hkEjNln1LP/zw5jeb7nzjpCoAPv50M4EiifWizobRRp0jGMy3Osxlv2cC1IuiMoSru4DNcgEOZCzHyLicjaPibQYwzTDYMGSqGFI/7OeFCicx2lRwfXzKQOiNynFEDmxrpqjOXlMXY2lhmPJ1fskv8vdlfZgAFEt9fNdhJBVxHbbPvu+GDJjNZo7RLp0YAlW5ly9Sdo7PH6So3CRp5mu8fyPqxDhKs3HxoCy1CgyH6hRi7QZMeCIt8NvJP39xQ2ddwCigurn2x9iLTkn1R5c9FZkgJJ+DPl6fZuExMNa5x2MqCwNMuT7+Q6uv1zJezuxI+uFUyIbtGBQlct+wg0pQUq6qCzh6hLpfr6ja9pDff0J3jbbIrJCP6LEZYlBaoniTKkQ7+cLWKWpZJKH97QiO2ipSMpe5x2oqMj3830+IeGTRLJhonyaIVE9g588rbTfeQe4/UH084WvaCqB6GiNwjciSwwCjybbtPMOXlRLDTLfEXrexOVsKoZsX5dGZAvIWS2OdN5RERW5fr4dS/55GuGFfceYqOqgFJWVf0eBF6yisoQrApXBry2d56SHCFeIrAGTVd3CG6TwJeqrmq7yCDz3P8yiCiC9uHrmRAXwA9CZzjtKonp//TIRm/vvXl4pxNd3kjlRzREPUrnZCiI8xbfxkWpkv7LNayv5Sx0XmBPVLGmfE48pRS5Svc8h9tPs2qVtXn7kd4Iq5kRFfrCUEod9TkhURA8HZmUL27xiyYvqLXOimoTI0y9KLvSRENXzDwVEqzQFgllU58ivrsYTE3ULj/NyGBPVbw8I15PNmjKL6mvya6v7xJqogGZ1Itc7PEmI6vmHh4RHwygfCUui+ifAyrKWqY9BFmlc60XHLyqAIVa37gvLovoWYF1NjInKgGC5hS9cuSgqkG7i/EvCiqj+BnGCZ5atKg38wPes/AKKogJpJP756gXhs6gKANZU186QpkboXLqOxw91XlSv/wQZYXzzR0H4IioB4sy9oYYZTZWMI0rgqNw4K6pFmGHrX8LUiqj+BTGFlB1bQY8oIrnGXOxckLoCM7j43q+CsFZUAshsW1aqytWILhK7YZwQ1eJtoPkc13IuCBtEJVy6BxGr1AxI6lMboo+Uvj1HRfX6BdQkoazcnwTBiqiEB3kAn14+QF1Tr8oQG7jcYeyYqBazoWaeobxfBMG6qIQLdwA2X10DbS9Bh5jBxbMQxY40teSBPUX+fUGwKSpBuA8wwqHI+IqmlaBl7EJCV05tbSoqsDmylgfIFgS7ohJ+ygX4N4a6qWmqSoeYw/kGmWJKJ2SsSerRBWEzUZmDFcSvwPIuOseyWL2W/aZzDTLFLMzmX5JUjg1JrROV8ODh/9k799im7iuOX2h4bcA6tUPTGO02jRUmDU1jncTUtRJjrJ1aqWWdVtFJm/YH07pp0lZ10x7aX8ed7NiJ7cROYucdx0kcJ3GekJKEEqLyCgRCSRpSNB4VUFpAlaiIRCftOg/iJH7cx+/8zrlOzt+QXN98fM75nd/3nCPjqYZOyEeq28bXQnoEMp3kW0SmA19KpOZDBeCSUi0bGpDZsXzs9pCNuWnX8wHxvqOp9NwD6Ww+VAC5Uga7H3r/bVlVhFvXbBYwu0Z3BSSTXOYWERoAdEIFUCHFj3YNDlxBJ+rj2/1dNquYM9BgACoZM6cS4XfnAhiACsAjJzyPHRnFrLJ/PHrwgs1SpmEANswXtUh1UqFADMAgVNKwso3138Sps384fv24zYKWSX7cSbGXe+Z6yZsHYAIqNQjKqni09w2PipVbXTl1tLfdZlVLr+frlD1xeLb2EXYAmIQKoK2kWdYDt/T1DIjxWBdvH+5tsVnc0uj5OuXORk848GlFCmBNGqgAYgGJ1TTbhe7D4xPGaw3Hzt8+OnjJlh3WnGpRW+eUqKVa7tOUtIEOSw8VQCQq9/FtXX39wzdP6NrMvf/iB+NHR8502bLLkgtkOiXum9GVneuACsDR5Cd4o13XhkYO3xk/8enpD1P4risXJ04MnB0+2H0g22iaza78C/V89bI2Yz04OVRFAERDFb8TDNop3+3Yob7eoe7uk/3XR65f7x88OdTbd+N4i21R2Fx3VRFwSv79aW74TEKlJleV+bYl03Xy6B8W1LTzQCAT7pD83bZnrJ2bggqgMVy6hIoWuzR07s7d02rMHhVW1QiV+P7jCUhObvWnUvqhUpMrT8cSMhmOGO/df1Bxe1eofMvZLPnTGEiljEClWrnUEoN1nFP3uTujp+dNIRmx8ieqbXIASIIKIFLlXIIowTldP5rgnOboTC1cIytpAFOmF6r4teBSFJx0TmcXOKcEe/uCVT+Z8VTKDFSLOwrGndP41Yx3lYMW/Xil4TwAEqjUKFi86M6C7YcmnZO2Uv9Na37GDo8DgAyqRXUW1OicEm+1rai6aa3LBTFmGKrJKJif9c6p5+zoZd0Da/Z3W++zVkfzABhAFa+I+rPUOZ0Z0emcEu3sIishiIUqruULNmebc/rk1GVT07ROj1nrM9vdbSDUTEMFEPMWZANOY6pzGrgqoBfj2JClPneB1wXADio1aS+qtbJzumHeOSXaLSt9eEMqBClQqVbvtlvSOb0/8KngRrEJ68i77MEKwDBRUAG4qqot5JxOqs7p4n6MvrAzVnkJ+ZUxAOZQqebrsIBzOiLeOXGa/qi9dN4IYAWoAMrr8hk7p49wnFOi3beGIlVQ6VwOVBxLV2O9qnOawG+xj9s7ByxAVChQDqgmHKq4pL3Ezsc5nZA6aLSHP1LO4giA9aBSk3ZvGbVzujcw8c5i2E+i02p8gG84UMUbu2qo3tuhm1RTkK8wH1rU6s4FsDBU8UFXVKqrlsHR/SRQHWSNVHVVHoDVoQLIK6ZK2g/cIdiwdJdz8Cv0OQCyASrK++axg1clM/XuIbZE2SXFPUlQxe+bqZL23vekLi5h2z5THXWBVFuLDhVAI9l984XDp+WNaed63mtygGTbKgGqeNJeR5S0t5+8K2fTIM/2mZC7HuTbDjlQUSbt127J2F3CsX2mzBshQApWPSYLKsqkvevIB9hMMWyfqW1qBBL7iyIRKsqk/cxHqJd/7Npn7CRxb9L2rZALVbzSXkj0mo/3nMdby9zNLe65qJCCnA2KbKgoK+3t3bc/w4GKV/uMnyruxW3XJoUCKjVpJ5PH4Gwv4dQ+Y3c3AKHtei3OlLKG5JdXUGnaW64L3+F1jM/WtwLCuBe3vz8yyZSyj+j3u6JUmva+T8Qm7ffYxL0iBylS8J11U0wpW8geweEjS9rPTWRd+4zpqVLm7bfLpplS1n2X8DHIxjG0C1s5yKN9pswbo0bqTy8qs7aF9FEIk/ajQsR8w0txb9Ke2pDAlLJiH/HjNLip1Hz9p0yr+ejbZ5pLKsiJgl07VitzbN0z1I8UIUvaD5w1p+Yjb58poI97qv1+nTLfnniG/rHIZqiZU/P1UMe9CAOkXviKksQ2vMDg0WKVVNNjjKv5SNtnsEYh6I18v1yhJLXHNnJ4vEgRVdJ+afiyofaZG4RSKRZxD/769BeVVLZ6y6McHpFuekzLoAE1H137jD/MIe7BQy9/U0lnf1vLgirIq6IafKxbzUfWPsMj7gE8tUnJYMt/8EMej+rwUK2C6zpyX8/ub5r2GbwRQHqR+rmiwV77MTAxupGPZ25q7pYnaZ/BHAGkD6lfK9psxY5VXLCi65vX2oJD0T7T4WHy52nyb//8KxqpUlY+/TkuWEFbHWc1n/z2mVBdOZMv/NQp/Sd716/QiNUTf3iIDVZ0F4M37mVS8w1Kj3t5PP4okeLZ64/ndj+uEatHtgIfq6AadtU18l9G7TO4o+/0fM/n96785uHl2rDatJERVnTDrvpSt+Bcltk+0yp3FEK6A1Sy/oJvvPpVjVht5RMEweGjStqP9/yPvH1G3gigjEluqqjxxq++rDEIfu9RRu4ql2pCbXt3MjWfvPaZGh+TuJfhyn/bS9qw2vAyJ6w4qfnOS2qfCYneGmP2wJfO9mrI2b/1tT0iVp+KNEo1XyJTn8lpnymLRpi8+EhUS1q7eXf6ytXq7+99Y0peUVLPCSseaj4p7TOkLaGZs/Ok9rP1qZF65fk9Cf+ytokTVnRrJcZmWnAktM80uxvYhAddY1V2pqgvvPSFby84f0Q4YUW3EXVo/K0333yrD/vX8JAIT12W1ep89u0/TRL3nvxS0owxUM4qClKq+bDbZ5hIpeJnIyM7rPbMp2r1+u2p/q2dzV3mTNJOpebDbZ8JsnnNMYMB4dmVc5h68kcW+QpNVdqjTluWGaOA0GB8Qt3OBKQe35b5Q1eyKjHQteAglc65fGkdptKL0IOC1fJXN2s6lnBRss746MqCLEGqlk3pPM9s3Wb3zJHvWQsmksRJu0AjnKa44GxtXsW2fSpBf36zLv/GLApacoEzyxKCmlCYf5Wh302qiHfqLs4FeZ0FXVXWTdpL2Xj+iKDr1ddVppZtM/I//VwU+NZO2gu5qO8gFhCVnv5LherrBv9vPq+KqJq0hyxGlJ2N+k5o3e+fivKwiZdSyCsKWitpL/CyKSE0iXxvwRxl2XOmfoKTjS5xJmm3iLviMKhspoosVK+dH8tRfmH2h7SyUZJNuyuvBZJ2PpdeuaKPzj7IUfaKKNw1OThhRTehVuOZm00qhfCmikGF6s9CflQZ8QDvhfIYtlGwgM2riiAUYqIQh+p1USeZEl4XOHSadotUpTC+d81hmITq3wJzT14XOHS74CxwwSeidL4wrk9lijnKP4Rm/txKV15G9832YAMbL44yA8w/fduUo6wS2/9rZ9OgPVOCqeWBVCubzqQYkhy7cuYPr0IVFv3DpW8Xz2BtDO6b+RxksHKC6tmUWoXKEUS4fmhghRW1SNTJJdl0oJ1eAgk1cBUqiGAEWD4FY/LSFZtXIe7KeMFHnONE4lBBDOV7XMBMdZXrbqWRIXC5MkabpJpfPPdbMwkVuHCcIrcOnDz5qqsgE0WnA/Gq3T0/tk9BBRGsWT3c7pulRkE2yhYXYmWlY+HN7zRU4PCiHaXd9YszCtrdTGp2mC2S/mSxKOfBYu4KvHl1zJJ2Q423+pGKZX3cs5Um/8POQgURN+IlKq+k3eFDrog2M0EKdbSlM5WvSIAKwIOYx3JL2jE7cLh4KVTBojOcMvzMgQoiXszas5NXpR0te+WRSzmKML1xabqMZi5UADE3bqLBqtIeQbhXZXLii6COdPanH1k2HyrVZ+KmG7ySdoenUDBS5TziHmbEqcmUyCyECsCHq24r4CWPqRd39clDiICsy9BQzk0GlXo4wsXK3uHj5K7KxeSzZSxSRpcXs14S0uSJk0KFj5WtOspJJOoyrzDiEdZxVT75GvU7KaCSgBWvpL2x2EzOHiph8Vlwq2/ab9xSQhWvsWNPJ2ClaXd4jKrX/FUc4h7yPYEeT7xGWZX2ngxZM5lfxylpd3n1u6uyAItW2jbcG80OXZ1S6aHCvd+e1hv5OJ0FGwJ66jsFbhaCfOSFULpLb5mgwqkQzkvaeTWiVlRq+8D+QAWLMyxy3CvTP0YkM1TiK4TJTqq8GlHLw8H0DtrpLmJyQ46s5DHU+6oFKhnJFbsZalBeFKhJEgqbS4NeDxfPiq28NziRTSNUwufNJHNXgVzgZpE2X9gbcJcEg0G3uzJa5IkxqtpGcNXRxseIaIZKSltmLS81H2vLxR3EZWaMiA6oQMYY4DJvbIkXLXXOQuRkxEwFUR9UMrZk25kNPmZo2F1BZvWUeqECaCxCj4KlvFbBMTPk0Vut5kUk+qGSEgW5jXzkYygjgBIv+gW01BmCSkYUXErak0WJYtxCtKAxmwahip8Fa7CxKqtcStoTLYa7kVXcfhzDUIGMET3cWnBI4x7uWECR+3HMQCVlJQyzFhyqOifyAFOxIiRzUIGM5evchl0RxD1kqYjoHY6moRKyIM5Saj7ZhjcCaPp2THjmKgAqKdOluU2olXbeQ962UxpGmMojBCqIT5JEn6vJS80nxbAlkkh74URBJWW6NDM1H7Yh725qReulFgeVFBkDNzUfoiG/TGcUbxqdSKhAyjZjdmo+lLgXxR2hhbt5QjBUUkpX+QzVfEINWSIcwp5tKByquKQdf5txYVMWl85x77/K8PehIkAFUrYZl2Vn0t6I3Lvkb5KQPOBAJWWbsT2YdUk7+pWxnLsJLKhAyjZjfzgvi5CqwL4yluXbEaFS3VUUfQxwKFuSdgeya5c5lQYVKpAyDL8mC9R8yKLHZrlTabChikuq8/GTdmur+ZBLCAWyX89adKik3DdbOWlHrsD4i6QrPDZKgArimyyWkvbkaSduCYHmy/ZHOVAtJe0pUinUS/gQjch/10pZUIEMkai15DHINRcyZeP/2bvWprauK3owwpYpJENkQ4DY0+mQAWrTAFOb2jCYDPbUTcepOzh2/aE4L2dqO03appO6j5l+uXyQEEIPEHoBFpIACfAIqh9YCbDNQ6DHPeucJeH9A+yry7pnr7P32muPC4WgUkLaK0YeA+7G6COZo3VqQaWk0l4J8hgwlZrWONx2plOoBpWBXT9XGZp2MJXSemVpGRM6QKVk+Tqxph3sAaTX36SlLYcpYanG4swE7SAq9odPa15k8vDpNqZEj6b/P/0CrmlnW+CMbvBFdJfq7nTuYEoM6mOrc3BNO9UC5xTW4TKj3X772cVdTInmeq2lGjhpl+RkYv5khtpKxfVvOWgZEG+iT+ujuKJom3YKkSjW3jkS0J/nezr2YErUjGomGh74IKpd80Ii7JafDMHaid4HdWJfNJ/Vnhrwg6j+ZW1vHrqPLE5RO2nvFAfDZtH+VA48afdpKTM7oLVzZ4Chyvv8rsgTHQ3VXxTMCSCVN8Swe2NmKNYt9Q7WiLzRNEJx5w748VlQ4aedQmb1TQ6hT21/szgq6vpqKS7e4IkSlVlwyguUZDhJXMGHLojjou2fHCXCNNz4WEkWnELO08ZIOlA9baJAnG7lOKzQOxF3hNtYNuLy4iCFswAqMZIzf/n4g0KoEm0NBklMwtV8yNHKFDDxLa2T9DOT27W3+Pn3agqgqm78exZYrcFHcOygL94FhFRslmTGcY9u9TeXfl0AVo2t51hgpWAEB8BNgDc+O81ulQPl3A//+PsCsLK106BKwQiOZAs14I1vfp1EzZpXv/PRlQKwGhvigRVezTcvj6QAhQiJDRL/wFTgCNXu54Vg1TZCBCu4mm86JIWzrwbtsLzHsp7g2OT+i68LwWqUCFbwERy723RXFlcG8dEMnaVXjvd8+OLSqWMg9Yc/3Z7wzxHBCq7mM6doB/q++mk8bVaLaHb8/f2jIPX+u7eIWuCvb+poh9pItMwTAacHs4dp1vLMFqciufVZ3lLVO39mPHm3rx2eMDoLlt72Xw3BGN80jUNSKbOvl6yHIPXZX9VUCMtuDIJJ+3yolLNhy4sTS/G42JToyPbxQUj9Kq9alQlW+LUSzlBR51XKEwIW0Xheeunq+nf2Yuqd2wwipCLOB6zxXK5nm4kmjwOWy+ONAS8OcZ7x6nLKhJ+8uQN+ff7Yay2VAWIqAB/BmdhMhOaShz4mR9oTdfuhmi8WqVROCl1eKecnrzLfT28VIrGrTLAy8CM4O2TZn3GHvOvRQNTrDbkTTrghYIzGYat8G5HzO5j64PNiWgVcNsB4NZ/yiNO0jE1tXf9kG1NXflbk3chLRa7WNmLVBCmiAo45R7Yfcph674sSSjlcWXAL71CrKHhK56Yd2f6bxdQvPyyxYU6VBVWQdnzwWHabX1b1v38J8dvflVwhJPPVxI/ggKkUTwkhKUFqsWQR1o/KamhwZcFKJu1LPCUE0V2zDAAADiBJREFUOWqQDYu4UjYHoFo7W6mknYdMyNqPEzQs4l0TtxWulTCT8Eq77HhJo76T9/L8qSyobptp6weTVLCqLNKu05j6QMiTGPqzdNsifm62mU5VunIoqrRL6MYEWFQIroA8pVoOU1lQ/WD+7sKVBSuCtPN0Y9IrEgeAwts82yL+Y/6fYnOXduDXSpikUjR3Z7kHu3fn0mER/5byz0WiXDsWtty0WZDnZE/JnQKff3W0WMQZSRrdTS6NKHIYoTqqUmnJQujw6x+WBVVaWveMrIFjeGbYIMXT4EtKnlL07Rm+yoLKmJV4ApI1cBTsgishMiwNvjXppDO49++eA5URlfivs20zxrvHFN3ZYqEH8lfLR/Zf1LZBJRVV0k0vqqLfHKcpdMoXC8WjB/7eO6Ay5uQmWLbFaLpLVzSOLcZcQv4JfIjx7ILKSMp+6zGubcY6S1eRZQdL3pN/Ic7kSeqvQGVMSbfsWVrnIu2rekpXfhbzO8R6nEReAv0aVIYjIL3HHw9ykfYp9VmQxUfYMZsAfC9H/DjLnnW3aYAiiazfvDaXUAmpMEk7xoUoBB99BFv27VCeAzgVsJF2dVkwOMmS9zbVZvX9oDJSIcQbn5l1cGVBnwJIsZSlIG5siWOzuuXgtvcFiF2Pk2tgEH8XJIFUCmLqVagzcAhUhpGE0A420r6I9LoKc0BqEmFsay+c1fOAyjA8mO+Yx3Fpt0sPmkMNc8yuQ9rp9mJ0O3lBlX0gzCWJjLRDtvFx3PgwZpa+4ljMEaCCwYqs0u7Y8FfjKbUAOYSXilXVHwmqLLcCsY4lLnnMorwsIcE5W0reyyCu8P7ixXJnjwYVbgGtnYu0b8nRq3H4vrowO5tLskk+FlTAkg6XPCYdMl0ejFDcQjCixFJP4AKgkuArc2SNIcSkaTfXyLCHKVZkY/Ker+QaY0FQ5eYzUTuHYkzWfI7ZmbJJYhXnvXJU9UWAysCoJrZjnsqOIV2G3ijuXmT4MtIYMf5MWSKL4kAFVI1kMwcTafe4S/njbIZnKdpPHohgumxVfbGgQrriR6h24Kx53MV9P063h+K5XZjRDl/57driQZWrXKGyYJxrENWxtZ45vpjiCy+TPDEo7/nNSKBLAhVSNZLg8lAzHKvLbn8+ZM1nQnM0RBCT98wuMSkRVEjVCJuHWu7HphfnoiF3OJOJzYTdK97l2S2inngKk/c2TTdoSwaVAdROvuQi7dxh3kU4f30kav6zKQdUyAkCZ9T1Fi9FBGhAVo4bRnmgQk4QbJIZHxOGA5P3pFlOlwsqA2kB5edagsOW9zC7UCVSWhOgyjLFddRaYx/ZCA5PJDGeplJH6UyBKtcwQ7mX22c8b4+rw6QDc/WW7NRjElQGSF2/26hNvcURvkgof4mJeVAB1TETcTKfdq15Lwj5eBHO2zJAte1ePoEi7ctvawy5kjPmsj0DKQzKAVXuTgJr4EyHJk84pFLrkLIgzPpXGqiyPx039hvbOMGkHVS6cUZh8ycSQZXL+7A9oWwOtcry3iwm70GNpOWCKndSo9zL7SewMejCvM04uGkhG1Q50g5zL4+cLNIOmpDDH/ryQZWNhRWUe3ncvXVSIAUaN1Gx+xMCKqh7eeIkNAbXMIsLFe1nBIHKAGqPyUZwAAGSCCt7bzhQIVVXVU3aQVIphdIPJKjMDGgWJu3RqmwMglrGL8Mq+11YUBnIfvNm9ZF20NnuU7xh8DEaVLC5NMYRHMrSuXrX8R48qHI0IYgi7b6qIe0YZZqWpWbDSkCFJO1VMYIjc+H63l68nt1dFxSBCikSzZL2yq60w6aM9byWIaEMVGDSXrkjOKASgrYDvLdDKajAlfZKJO3SnWxfadD0Uc1rQjGo3pL2/VQKo0KI6PS+HBYaQJUl7TB5TGWR9oXQJuIlZLSOIfVb9YAKW2kPVEilfREywBfXPDDZWpfDlGjQ9Zni5DH8mnaQd04koPcaXNu1fU4J8UQboTix8hiQPDaje/z2+8tiN+5rfIoTqWnHLFqK6zcKGO14hSlh7anCj3aCbq3E6+8IUpVy6meS16/WiTdhq9f7NDCbdrYFztnAzMYw2E40PBL7YkB7QniBG0Qlco9xQOwBKDZnnOurEQeiSz91hQ2i2jMkpSuMvYaTQqv4jU0cjnGCB8NtYWd48WlIoXOG4oM5+6lV5IuBeoKHc0VR7jG6RaKrQQA731yhqMf1Dl4UR8TYYwrW4QmjjiuNG1Eh07VLHHKf6/3N4uho6iap4sDcY5x6SlcQGcIMydLgdps4NqwDN0kuSRswy0flqivIhc/OMvExNCYKRjPJYYXbs5tr4Ki80waWENcOkl7ByCNRVFy+wQKrVABVY1C2F9yFsCqLzZJ0NdvHRLFR09VCUyuEqfnsKmQMawBuGGcRTdd2XxClRGPrORpY4UZw0B98Kir/yedZzJrP9dtEqdFxr5answFT8yGX4Dii8k8pP4sEv3e4WZQTF7p5YIUzu0INB6wtSz+l7DTW3w8Hm0S5QQUrmJoPYVvhkH/j47FOuvFtjTATtic83Aqo5kvIrSKuyedSPNufRu/WCbPR+WUvEaxgaj6J80zyhQharBDyX/ja24SUaBp8SAQrmJpvfl0KZ19YkS1E0GSFkCfqW21CWtRca2CC1QJmxauMv578VjiPF/PDwUYhNayXh5hghVLzmbtfpeT7vmZoNtM1XKsR8sPWX8+EK5Sar2yTlEW37LwX51FBj1y2Ckw0DlqYYDUVxWxEnXaXflwteKU/i5PGzvTHZxcEMGoGRplg5UCR9oi3lL5gOio/GcdmWV7ymb5mgY62bqbKFU7N5/cWdV45kl75iCLaaNHw7SmhIjqvfkd1XM0lMLCa8AWXjz2wHKvRMKB55OMZqx6CUanDceraHSZYAUdwJuYz3o3JwzewqeRyKIFxEaYpndf324TSsLZ1X2eClQtE2ne7g85EMOSNLudi3evO+FFWNRM0pXPDIrsqVZFZELfAWVUQlRC+GqgReoItC6Zhaj4VsURTQrje3SY0hrXtHtVdEEfa0ZGg2Q99c7hT6I7mPqp2M5K04zgbjfrOaPjbRcEQZBVRWKUdFdM8dsoqSwgF4x/PqPqCDpzZlXyVfIDF+L231Sa4orHrMdVxlX4RrwRIxWjMuR93NQm+qLs7QgUrnNmVNCrF043p+bROkIattYUKV6tu4uOKR9D545OngjlOP2jgOq68S5yQWqJZ+fWwr1Gwh/V+O1UDB7gLrhoafPpK5yU3cLhKV7hdcBXe4Dt375GonGArXbkCERZE8aw3+e5qs6iweMolaTdwlo+lFTpZtFJ3rp0SFRhN4zeoYJUO+TRDiqbQWdt+3yoqNOouD9UywUpv6YqGnd8c7hAVHR3DN6mOq6SufnOCpXbO0jI2qbr6iqvf7NWQBTMkMoTaocrNewdi7AlXv1lxFrQHSdoxLV92iCqKxq7nXA2coLIsaHeTiIRvPDgtqizYSLuiLBhfIenwUUmlqpe0K8iC9hAHpPikUlVM2hehFVG7mwNSN8ZPi+oOMtKehvUFWSA1crdOVH80dlFV2l0BZ/XS86rOe9Sk3bEhe7DrJQekno83iZMUHcNU883JcPXR829ORN6jlsdMyurf/L+9M2hNI4qisEmtWomL0JCgElcFDShUFxOM0Ai6VQYUgxuFBANtQoUsmnbvRmKDkCYNBrpJEWpJ6KI/sKWFlLSxOvpm3pn3zvcLBC9zz9x77pnPEEaEYGbdoydY9hghmr13iWATfpdY9ugLlj3mdN5QfYzcVx373n0CSSRP+9c5whjOIEJb9O1794kbfiRxNZglfap7dY5gwPMmQqynO9GeAiqr0c33W4uHxpcQMUDAJ6FyWM9AfQNn+GHal8Hb6yHEBCF48IpV9K9oxzpEHd30J8v2Xv8cI6pMTpqiK0R7DStPu3My7I+97epeDD6iHK6z7/2X1bS3g8Xoy3BwdXH2pxt2e9f9ByOLJYEehQCxGCzvdxA5/Xbyk0/vR1g/i31vStDSY3AplBdYLtMSOyyxYiax8rLCSrEm2sGCj+Gop1dZJdYJ5VqsnXF9b5N9b1bRbmKd4KD0PVdFAAGCdjcvH7/Bvjc3i9kCK+mOUpZ9TwwVrJx2aWxtRAKsBnGLQbCwKxm0Ab4ao5poT0a1Fu1LhzEWgQ1gufmcRKEIIDyw3HxOoVgEECBYbj4HUDACCFG0g31WwlbyJq1SDi0Ga1EtFoM8jXEWtC+i2oBX65NQSaK9rLRoL9AiLEm0hxUV7StVWqXk4VNRtL/myli2aI+AneDMvzJe5L+KINq9HJ0T0aCe4FhEozRFd+D+E5wnHCHgETtys2jnCIGiXbT7jq5zinahFOm+wxft7pq0b+/QfcdJu1BSdCFw0i54G3PMv8pVor2GlFBLKaUK0J72FqWUSwH7rASnUopwjHeI+iga4f/ickIJqPSYYJi3MUqMrsw8Skn504xTVIanuwj75u0jeqWUQv6+eY/qXMnRlcQ4BtrvVEVWhtpWlRd8KndBCcHHfOFTvwtGNhxd4Ky94HGMDsSd64LFNE3C7IJiT/hyjGzhu6DYp1SOS2P93gVtnYi2+ZTSE1/jrV3ynFpKXx6bdlja1wyu+PSmKXrE0OZTiniehQWaruq8NCa/CBltGhGI8MlVQ8AZKi+uyF+afXNvvhUfc1/JQ5p99u+hlnYopcgYcZWYxctXDFfoliLjCTTD1tbNz6smP8JHJqqrZGbamHb/gckFH5myrprpwqSZaDCVq/Btj1hiOWnkx3XCVjQRYdMjsymseLKxGy202r8fW2/qS/tVI9ukAYGIqK6FmC/GZkeIRH4Aq2RQGIWzs8IAAAAASUVORK5CYII=;" vertex="1" parent="52">
                    <mxGeometry x="10.75" y="19.5" width="68.64" height="59" as="geometry"/>
                </mxCell>
                <mxCell id="59" style="edgeStyle=none;html=1;entryX=0;entryY=0.5;entryDx=0;entryDy=0;strokeWidth=3;fontSize=16;startArrow=classic;startFill=1;endArrow=none;endFill=0;" edge="1" parent="1" source="56" target="37">
                    <mxGeometry relative="1" as="geometry"/>
                </mxCell>
                <mxCell id="56" value="&lt;span style=&quot;white-space: pre;&quot;&gt;&#9;&lt;/span&gt;&lt;span style=&quot;white-space: pre;&quot;&gt;&#9;&lt;/span&gt;&lt;b&gt;&lt;font style=&quot;font-size: 17px;&quot;&gt;Log DB&lt;/font&gt;&lt;/b&gt;" style="html=1;whiteSpace=wrap;container=1;recursiveResize=0;collapsible=0;strokeWidth=5;fillColor=none;" vertex="1" parent="1">
                    <mxGeometry x="-749" y="261.5" width="249" height="121" as="geometry"/>
                </mxCell>
                <mxCell id="58" value="" style="shape=image;imageAspect=0;aspect=fixed;verticalLabelPosition=bottom;verticalAlign=top;strokeColor=default;strokeWidth=2;fontSize=16;fillColor=none;image=data:image/png,iVBORw0KGgoAAAANSUhEUgAAAQ4AAAEsCAMAAAAFC62qAAAC7lBMVEVHcEzptBfouBnzwBjywRnzwRnwvxrzwRrxwBrzwRr0whnzwRrzwhrxwBnywBnwvxrywRn1wxr0whr0whr0whrzwRnxwRnywhruvRjjsB7mtRrgqSHotxzzwRnzwhr4xhv/yxv/zBz9yRv7yBv1wxrzwhnzwhrywhnw0Snmsx7/zhzywRnywRnPpCr2xBr3xBrvvhrYoijntB/ZoyjdpinmrSzapCjiriLWoSjbpSnpryzcpinWoinXoinVoCrdqSXcpinfqCrjqyvsuh3WoSjbpSnWoCrWoSncpindpinptx7WoifYoyguf5LWoijYoyf/0Bz4uy/hrCoiHh8iHh8iHh4YUGkFpuAFpNwGpd4Epd0Fpd4GodwstbshISEjHh8lISIkICEkGBcdQE8Fr+sGrekGq+YGquUHpt8GpN0Gpd8Gpd4Fpt8Fpd8Fpd4Fp+EEp+EjICAjHyAkGxoiJCcKl8oHpuAGqeMGsO0GqOIGp+EFpeA0t7cjHh8jHR4kFxUPfqcHpd4HsvApnagiHh8lFBEWW3YFpt8iHR0iHh8jICEFpuEuoqMiHx8gKjAJnNIMirgqs8IScJIFqeQjHBwYT2UFpt8dOUUiHh8Jms8iHx8iHh8lFhMhHR0aSl0GpuAiHiAFpd4dHR0jHiAiHx8cQVEjHh8Gpd0VY4EjHx8cP04Fpd4Bm5ALopcAm44hrJ8/vbA+wLI+wLI8vq89wLE0tqoBm48BsqQBppkCpZgFqJtByLpDzb1Cy7xCyrtAxLY/wLE+v7E+wLI+wbI+wLI+wLIHoZQAopYBm48AmIwerJ9CwbI+vrA/wrNBxrg+wLI+wLIKnpMAmo42uqw+wbM+wbMWp5sutqg/w7QFnpIAmY0Oo5Y+wbIZqJoEn5MBnpEosqUAmY4FoZUBqJs+wbM9va9Dzr8No5c+wLI5uqw/w7UhrJ8+wbM+wLIFopYWqJsaqp0graATp5oNppgKpZgcqp49vrA+v7E0uKo+wLEnnwQPAAAA+nRSTlMACx8xQVpwhpSpwMrg6fj///HauKN8alE6LhgHEp3T/////////69IASf/dGME5/3/sf+J9////0ba////////nf///1rh//+/7f9nygJwfv//cTZIR0dHSEI4LxwOFvX/////////////8enLsIhZKlP/////////+dSgFpv//////wXT//9pKfr/3Qpe////Jf/sIv+Q/4r/ueL/Wv/ArVIZ7nn/53z/yf92VnRwcXBlV0Y1IIH/////////////9+nSuZTd//////////+mbWn//9id///lxf//v0D///+l9v+I//+xyi3wMrHf/YD/WIfJ6mI/d05/h8uIdgAADRJJREFUeAHc1UeinDAMBmCG3uXpdFk2gowfKfe/XHpZpScPw7fUUu13bHBwPT8IozhJs7wo4TNxzE/Z+RJfb/eqblpn/zrvfu3PQ1GilESkNI4M34wj6g91qfhYZFMczvXB2aUXj/l6yQpWZD40QcCP8YfGGKnLPI3DqtnXTvhPyVBqIo0Mv4dRGcIiixfvsI9WXM8FEmmGPyZGRQSn5Oa1mz4QL5wKJIkC/h4jEZ/6wHU26eBHA3xsxb/DmuQxffI214t7n6PRDP/eqEhk1w115KUf55pQwP/CynB2rZ0tqK8DGoT/jJUpz0tj+5EE59JoAc+BFb3qfcdej+gkJcPzQcLs1jlW8pPSIDwzoSiPHva9zyBFGmENaMpLZdfLWAalBKxlpNfTbE8zwhMpWBWTPtvRkHY5GQ2rE1KfLYiZYCANVhCE08o/ZE6lBlu8EcSXFVPmHbd2oeYqD4QBeCrrAl2XWpBKalmhyrAHKhy3+7+XX/hdTgMtsPPwXsL3ZL5JSgsNva5QIkxW2nule8jtwyM3hUKLMPhxF9KXe3q2hiNFVcjR2WHqFTKeTGc2Oi9CVehhg3Qn5u6N6+GvnOGcYB7C4GfXkJrFcjq0MbDCR1UhSNcqd5CK8hvPtfEPvjNSKR4Qkx9fp9QaQ/w754VioSpC1yplSFjvyfVs/AeqhSpMflaERLXf/rpQ/oZqoQaENrhsJdmh7yz8O/J5GPw8n9ygeK6P/8vH96pCEusn1Kj5t8F6/X8+0YWrCL22l8hGWVq4hu9TzcPgjTLE7cOz5+M6vkMxjwCvFiBeT97Mx/X8FdU8RL0Ua4HkHqZDlCCdR63WibFEP05RgnoeBttvQSw+3QYlKkG9P1TeyMWzUt4FJUr8fMjxwzvY3kKyUiT7ltSCyW+/YF1Xmgb9+2lAsONb2M7nYMFGy2NONo96v7BtGjZGtBrSzUMr3cDGWl+siGkEnJnIZB5fpkPchPOiUCX0UnHTSbFmuBlnpCrZOh9BbyBmMY+N+vRD0KKb8h8p59GGqBauLA35uiW7b8/yEM342bVxG85Q0M2DHZUhitt38ruofL3Qxc97EN7dUvJOoV+nEvwCQst9tHzc3uo95Tz2IKyHqY0x8Ine1gNGvQvhPE1RIgP1IWqDYrgV6w1RIgv1IfR+HuRuo6xYCd8nXB+CHeVApjzxfIzNaigo12mlFa1Gs71t1a830jc9xovwuAjpj+tjdxZ3HENBNg1Zd5Tlt9HMjItg1bsEikPKITkuon4s27MfLEyAT3G7CHbchvXaz/LiyMq4sKosjV7wcEsEubcLP8pD2juW7NtF5edl6Xf6ZEYlQOrDvjB4pQfpjAr9y4fQBx2AlEaFfpvyfhMC6W8V+Q/rNP93++khGJXMHw92egkhLCxMGIGnnKjxoxsIobx0MWHOy2vHobLSZS/kr6M2Zv14aHrjFsL4lECPUruLaeyoCSE9WDYmh8DLVmPVnR6ENPaGiNk9HibTjrr3EFbro4eBTB6PGlfOryG8VrBks3k8akw73itAFPcTF6Oj/9HW1JnWv7jOQQsiaH2YYkT07x6GzphS3b8uQ1S5pYupsZN9uaimaeh1xvRStXJV6MEGnr5ZKZpzlpx6TT09qZ7vXzXzLdjQ4vvnNO0mprtz3bxpl3vwM3t3gd3ADYQB+Dq9jB+EYwhKa625BmkNXUcKMzNsU25zyHKtlE0T2c//d4T/+a1Gs7PjYQMAAAAAAAAAAAAAgOmZWXfm5ge1sBhPJFOxYaWxtLyy6szaOuPegNLCz2Rz+UKxNIxMPl0pu1Op1jw5OJXmQRDUG81ia9A4PnMZR9jeYHpYpGd4trmwOUgasa2VskPbO0wPkUgHPLeb6j+Ovf2DskPtdSX0UAkeHO4e9RvH8UrZpcrJqdLD5plGkf7RQSGsnHE9fJzlz/t7dKyWndq+YJqANJf9/ECu9stubV8zTcH32M0RQdVBbO1WSk1CmVyy1zjuXMdROblXmog5TPQYx4PrOMLwjGsiPruM95TG0eNq2bGnC6ap+LynPGJ7+2XX2jtMU+ZR6iGP55Wya08vXBDmwQ6TBE9SyqNFS03HN1H3d7rPncZhy3RK5qbrKXRnNakVHpx5mpLkr13G8cWXIxDH2gbTpHi21WWbdKVMxP2txfJNk6BEp/K0wzQtyRe7iuOrkYjjmmtiLBcjaHbQePo6LTQtERQJbixUhYcvNTHe6Kb4cHrO0hcelmBdHLZH34xEHNVaWlNjURdlx7LTOOjrMEvW/7/1sVceBWG4wTU5UyCowgjLUvcP0xn3cRA3gCyp4gSvnGiq9EDTM98SFKUUtr9jmh6PxiSOpx2u6alsi6AXRmD7Q+KQ6TjNlYXgDic0vWDXfWuQrHlM0CR8WJ2kOIL8/8Tx/WjE0f7BE5oezyGOd7zDTcRhpbP/MzP2OFFxqExy8DgQB+JAHHiU4qD9VyjDLBTpuMIFhV4u+Ljg301SN0yqOJqD/3LOonXM8nix8I55w2snS4oEXkpaPBfDK+t/ewmHgYZzjLtYQX5chqFCOwz1MaOUGJULIgxSWpLPY8y2ww/yGMK2VD2BEX3LFPABR4fPGkf4vKdD1eP4+KtDml18GmiZJj4ctUx01MtuF/cHC+k5GzR6WI70yQh8dL52wSjTSGIlQYexaWBhhTDRH2lgnYmvTPNo7JbdPF0zTYKptzFchUTURlemsYhFWb8TgbpJYY3abwRnURxL9n4jGcsVsYLxV8IzKnqNYUGn1kJx4x3exCd7fav4Y30rq+du5v94gGK572tpSKufHZqbXxjUr6uf7R9pArIAAAAAAAAAAAAAgJ/Ku5fstJEuDuB3OWxGS2AnmjHVJPvIwwjxfYCqVCUexg6SIIroEIxRt0EysiGOnRjHs6ZDPwdpCSMVV+7fEv7nPurK52ARpJevXgv25igbZVWtaNViCfbxv//XhKo3dEIzQYjBuNlstTtHlaoET6Mcd09EOn3bs7LCObeZYxDqmK3+QHtSnbyrnQjknrznVua47RDKvaEqw64koeVx+lPPEoQ7RG/21SLs5mVdZHV86FnicEaNUUeDnXwUl8f4jFuCMWJP1BIkdz71hcXxc88SjhtGa1CExH6pCSsO6yC4Q7yBAglVL3zxxSGYQ1pq4rfYTHxxCKcbbU3EWwx/cWxx2psX8SzbTXFw65ACO2xVIInLGoLiEEBncyXRNJ0KKA4E7HARQbzXMxTFIQC9UiGW9LGO4UEqQMD0OcS6vvARXCuCGmZZhDivZjhOWQF4uJDj26WW6XeOnoUI8SKIEV1MBXwEwyEwRrF5vMusXcbTgFu5y+Ny5mZUHJsli0ygx+YhH3cFLFk09bGqxkzT808+gjkqSEBbcfv2ZoZgjooShG3x42M7RzHidADix8d48x5FKRwmeaxPU26Vz0hbhS4UiHdb8/8LrRI4zSokcZfmOHWxtgpjFdgSOU6xtgo3ypCQ8qXmPvNW4eEcEtusl3TycF2krRL2ITkp+tp9zg+wgExKsIvzVNbt6RnHmUZLht3c1v39B4f/nluob7fk7hv75uHGfztHc9nHe9Pwn+PgCPSrCEB8HuMzzlGmsYanudknj/H0PcY0nG0aovNwTz70MKchtl+2YxRtpwjIA/+pEhijNeznvj51n/I3N4xjlI4i2NftRdfdfalgPNyIV4X9Vb7umsfYx/jlPFzIkIbr45qb+6XCw6UC6ah+me101CP8k5tNOhKkpXjZyPWKDZjzAGm6a0yTpvEWXxrGlQrpuo9ZMJjvNuJpkLb1cS2fzy87XMqQPvmy4SdIg2O7Upw5ZEEq3NS7bt4eo2T0DbLy7WstV2kENmlXITvVf2kYd/wZW23o7FGCTL26qP8gDXRzg4deBTJWuP4y83/w3uC4Zqg+lCF7pbtPdfxp8HCkghjnmwJBfqdsS0OQ0s3FP1bM+ARXGnboqVAAcaLLWvevNHxUFz2n9rwIgt0f/9Exp1NUX3scOtFAAtGKd9uOOT0LEKVhk1UZDkGC68tufXOmWHjS4ORqLsOhSOcfGx96HNHQGL6AA5LgtkUcJGEYzlKDAhxSoVAqe8RBEUa7AgU4PGXgUYcfuE1+CwMLpdzSDX7AbWIvK4BJSZ0waluHwIjZ1wCddd8kTHiX6HQ0fwEFQCiarwzDFloYbFEuAlqKujSJoLFqG7Q5XEOhAJhFjy1GGM+8SYjZLsuQA6VKZ+UQxrPMgi8eI8iN4rfhimXTNfb3LDTIGWU9b3FipFok3CGGOXnQIJck7WjZZClFwhkl3BuqVcizYuWxvYmEOjbf9xcV+wNNgQLknrx+6LdMh1CH8V2DYDqhrLnolCMFnhHpRWWTSZPrlOgOiyuV33941HDM1aRztJaf6f+1kzX1Ydj2miYzDEq+B/O3ZLj9PQRKDZ2bo8Wyc1SJivD8KdVorQ4eO/3JYrUy/8zDXHmLdr/zWFa1SC6BCL8CfAxhnHZg2uoAAAAASUVORK5CYII=;" vertex="1" parent="56">
                    <mxGeometry x="9" y="11" width="90" height="100" as="geometry"/>
                </mxCell>
                <mxCell id="60" value="&lt;span style=&quot;white-space: pre;&quot;&gt;&lt;span style=&quot;white-space: pre;&quot;&gt;&#9;&lt;/span&gt;&#9;&lt;/span&gt;&lt;span style=&quot;white-space: pre;&quot;&gt;&#9;&lt;/span&gt;&lt;b&gt;&lt;font style=&quot;font-size: 17px;&quot;&gt;Log Visualizer&lt;/font&gt;&lt;/b&gt;" style="html=1;whiteSpace=wrap;container=1;recursiveResize=0;collapsible=0;strokeWidth=5;fillColor=none;" vertex="1" parent="1">
                    <mxGeometry x="-749" y="119.5" width="249" height="121" as="geometry"/>
                </mxCell>
                <mxCell id="61" value="" style="shape=image;imageAspect=0;aspect=fixed;verticalLabelPosition=bottom;verticalAlign=top;strokeColor=default;strokeWidth=2;fontSize=16;fillColor=none;image=data:image/png,iVBORw0KGgoAAAANSUhEUgAAAQ4AAAEsCAMAAAAFC62qAAAC7lBMVEVHcEzptBfouBnzwBjywRnzwRnwvxrzwRrxwBrzwRr0whnzwRrzwhrxwBnywBnwvxrywRn1wxr0whr0whr0whrzwRnxwRnywhruvRjjsB7mtRrgqSHotxzzwRnzwhr4xhv/yxv/zBz9yRv7yBv1wxrzwhnzwhrywhnw0Snmsx7/zhzywRnywRnPpCr2xBr3xBrvvhrYoijntB/ZoyjdpinmrSzapCjiriLWoSjbpSnpryzcpinWoinXoinVoCrdqSXcpinfqCrjqyvsuh3WoSjbpSnWoCrWoSncpindpinptx7WoifYoyguf5LWoijYoyf/0Bz4uy/hrCoiHh8iHh8iHh4YUGkFpuAFpNwGpd4Epd0Fpd4GodwstbshISEjHh8lISIkICEkGBcdQE8Fr+sGrekGq+YGquUHpt8GpN0Gpd8Gpd4Fpt8Fpd8Fpd4Fp+EEp+EjICAjHyAkGxoiJCcKl8oHpuAGqeMGsO0GqOIGp+EFpeA0t7cjHh8jHR4kFxUPfqcHpd4HsvApnagiHh8lFBEWW3YFpt8iHR0iHh8jICEFpuEuoqMiHx8gKjAJnNIMirgqs8IScJIFqeQjHBwYT2UFpt8dOUUiHh8Jms8iHx8iHh8lFhMhHR0aSl0GpuAiHiAFpd4dHR0jHiAiHx8cQVEjHh8Gpd0VY4EjHx8cP04Fpd4Bm5ALopcAm44hrJ8/vbA+wLI+wLI8vq89wLE0tqoBm48BsqQBppkCpZgFqJtByLpDzb1Cy7xCyrtAxLY/wLE+v7E+wLI+wbI+wLI+wLIHoZQAopYBm48AmIwerJ9CwbI+vrA/wrNBxrg+wLI+wLIKnpMAmo42uqw+wbM+wbMWp5sutqg/w7QFnpIAmY0Oo5Y+wbIZqJoEn5MBnpEosqUAmY4FoZUBqJs+wbM9va9Dzr8No5c+wLI5uqw/w7UhrJ8+wbM+wLIFopYWqJsaqp0graATp5oNppgKpZgcqp49vrA+v7E0uKo+wLEnnwQPAAAA+nRSTlMACx8xQVpwhpSpwMrg6fj///HauKN8alE6LhgHEp3T/////////69IASf/dGME5/3/sf+J9////0ba////////nf///1rh//+/7f9nygJwfv//cTZIR0dHSEI4LxwOFvX/////////////8enLsIhZKlP/////////+dSgFpv//////wXT//9pKfr/3Qpe////Jf/sIv+Q/4r/ueL/Wv/ArVIZ7nn/53z/yf92VnRwcXBlV0Y1IIH/////////////9+nSuZTd//////////+mbWn//9id///lxf//v0D///+l9v+I//+xyi3wMrHf/YD/WIfJ6mI/d05/h8uIdgAADRJJREFUeAHc1UeinDAMBmCG3uXpdFk2gowfKfe/XHpZpScPw7fUUu13bHBwPT8IozhJs7wo4TNxzE/Z+RJfb/eqblpn/zrvfu3PQ1GilESkNI4M34wj6g91qfhYZFMczvXB2aUXj/l6yQpWZD40QcCP8YfGGKnLPI3DqtnXTvhPyVBqIo0Mv4dRGcIiixfvsI9WXM8FEmmGPyZGRQSn5Oa1mz4QL5wKJIkC/h4jEZ/6wHU26eBHA3xsxb/DmuQxffI214t7n6PRDP/eqEhk1w115KUf55pQwP/CynB2rZ0tqK8DGoT/jJUpz0tj+5EE59JoAc+BFb3qfcdej+gkJcPzQcLs1jlW8pPSIDwzoSiPHva9zyBFGmENaMpLZdfLWAalBKxlpNfTbE8zwhMpWBWTPtvRkHY5GQ2rE1KfLYiZYCANVhCE08o/ZE6lBlu8EcSXFVPmHbd2oeYqD4QBeCrrAl2XWpBKalmhyrAHKhy3+7+XX/hdTgMtsPPwXsL3ZL5JSgsNva5QIkxW2nule8jtwyM3hUKLMPhxF9KXe3q2hiNFVcjR2WHqFTKeTGc2Oi9CVehhg3Qn5u6N6+GvnOGcYB7C4GfXkJrFcjq0MbDCR1UhSNcqd5CK8hvPtfEPvjNSKR4Qkx9fp9QaQ/w754VioSpC1yplSFjvyfVs/AeqhSpMflaERLXf/rpQ/oZqoQaENrhsJdmh7yz8O/J5GPw8n9ygeK6P/8vH96pCEusn1Kj5t8F6/X8+0YWrCL22l8hGWVq4hu9TzcPgjTLE7cOz5+M6vkMxjwCvFiBeT97Mx/X8FdU8RL0Ua4HkHqZDlCCdR63WibFEP05RgnoeBttvQSw+3QYlKkG9P1TeyMWzUt4FJUr8fMjxwzvY3kKyUiT7ltSCyW+/YF1Xmgb9+2lAsONb2M7nYMFGy2NONo96v7BtGjZGtBrSzUMr3cDGWl+siGkEnJnIZB5fpkPchPOiUCX0UnHTSbFmuBlnpCrZOh9BbyBmMY+N+vRD0KKb8h8p59GGqBauLA35uiW7b8/yEM342bVxG85Q0M2DHZUhitt38ruofL3Qxc97EN7dUvJOoV+nEvwCQst9tHzc3uo95Tz2IKyHqY0x8Ine1gNGvQvhPE1RIgP1IWqDYrgV6w1RIgv1IfR+HuRuo6xYCd8nXB+CHeVApjzxfIzNaigo12mlFa1Gs71t1a830jc9xovwuAjpj+tjdxZ3HENBNg1Zd5Tlt9HMjItg1bsEikPKITkuon4s27MfLEyAT3G7CHbchvXaz/LiyMq4sKosjV7wcEsEubcLP8pD2juW7NtF5edl6Xf6ZEYlQOrDvjB4pQfpjAr9y4fQBx2AlEaFfpvyfhMC6W8V+Q/rNP93++khGJXMHw92egkhLCxMGIGnnKjxoxsIobx0MWHOy2vHobLSZS/kr6M2Zv14aHrjFsL4lECPUruLaeyoCSE9WDYmh8DLVmPVnR6ENPaGiNk9HibTjrr3EFbro4eBTB6PGlfOryG8VrBks3k8akw73itAFPcTF6Oj/9HW1JnWv7jOQQsiaH2YYkT07x6GzphS3b8uQ1S5pYupsZN9uaimaeh1xvRStXJV6MEGnr5ZKZpzlpx6TT09qZ7vXzXzLdjQ4vvnNO0mprtz3bxpl3vwM3t3gd3ADYQB+Dq9jB+EYwhKa625BmkNXUcKMzNsU25zyHKtlE0T2c//d4T/+a1Gs7PjYQMAAAAAAAAAAAAAgOmZWXfm5ge1sBhPJFOxYaWxtLyy6szaOuPegNLCz2Rz+UKxNIxMPl0pu1Op1jw5OJXmQRDUG81ia9A4PnMZR9jeYHpYpGd4trmwOUgasa2VskPbO0wPkUgHPLeb6j+Ovf2DskPtdSX0UAkeHO4e9RvH8UrZpcrJqdLD5plGkf7RQSGsnHE9fJzlz/t7dKyWndq+YJqANJf9/ECu9stubV8zTcH32M0RQdVBbO1WSk1CmVyy1zjuXMdROblXmog5TPQYx4PrOMLwjGsiPruM95TG0eNq2bGnC6ap+LynPGJ7+2XX2jtMU+ZR6iGP55Wya08vXBDmwQ6TBE9SyqNFS03HN1H3d7rPncZhy3RK5qbrKXRnNakVHpx5mpLkr13G8cWXIxDH2gbTpHi21WWbdKVMxP2txfJNk6BEp/K0wzQtyRe7iuOrkYjjmmtiLBcjaHbQePo6LTQtERQJbixUhYcvNTHe6Kb4cHrO0hcelmBdHLZH34xEHNVaWlNjURdlx7LTOOjrMEvW/7/1sVceBWG4wTU5UyCowgjLUvcP0xn3cRA3gCyp4gSvnGiq9EDTM98SFKUUtr9jmh6PxiSOpx2u6alsi6AXRmD7Q+KQ6TjNlYXgDic0vWDXfWuQrHlM0CR8WJ2kOIL8/8Tx/WjE0f7BE5oezyGOd7zDTcRhpbP/MzP2OFFxqExy8DgQB+JAHHiU4qD9VyjDLBTpuMIFhV4u+Ljg301SN0yqOJqD/3LOonXM8nix8I55w2snS4oEXkpaPBfDK+t/ewmHgYZzjLtYQX5chqFCOwz1MaOUGJULIgxSWpLPY8y2ww/yGMK2VD2BEX3LFPABR4fPGkf4vKdD1eP4+KtDml18GmiZJj4ctUx01MtuF/cHC+k5GzR6WI70yQh8dL52wSjTSGIlQYexaWBhhTDRH2lgnYmvTPNo7JbdPF0zTYKptzFchUTURlemsYhFWb8TgbpJYY3abwRnURxL9n4jGcsVsYLxV8IzKnqNYUGn1kJx4x3exCd7fav4Y30rq+du5v94gGK572tpSKufHZqbXxjUr6uf7R9pArIAAAAAAAAAAAAAgJ/Ku5fstJEuDuB3OWxGS2AnmjHVJPvIwwjxfYCqVCUexg6SIIroEIxRt0EysiGOnRjHs6ZDPwdpCSMVV+7fEv7nPurK52ARpJevXgv25igbZVWtaNViCfbxv//XhKo3dEIzQYjBuNlstTtHlaoET6Mcd09EOn3bs7LCObeZYxDqmK3+QHtSnbyrnQjknrznVua47RDKvaEqw64koeVx+lPPEoQ7RG/21SLs5mVdZHV86FnicEaNUUeDnXwUl8f4jFuCMWJP1BIkdz71hcXxc88SjhtGa1CExH6pCSsO6yC4Q7yBAglVL3zxxSGYQ1pq4rfYTHxxCKcbbU3EWwx/cWxx2psX8SzbTXFw65ACO2xVIInLGoLiEEBncyXRNJ0KKA4E7HARQbzXMxTFIQC9UiGW9LGO4UEqQMD0OcS6vvARXCuCGmZZhDivZjhOWQF4uJDj26WW6XeOnoUI8SKIEV1MBXwEwyEwRrF5vMusXcbTgFu5y+Ny5mZUHJsli0ygx+YhH3cFLFk09bGqxkzT808+gjkqSEBbcfv2ZoZgjooShG3x42M7RzHidADix8d48x5FKRwmeaxPU26Vz0hbhS4UiHdb8/8LrRI4zSokcZfmOHWxtgpjFdgSOU6xtgo3ypCQ8qXmPvNW4eEcEtusl3TycF2krRL2ITkp+tp9zg+wgExKsIvzVNbt6RnHmUZLht3c1v39B4f/nluob7fk7hv75uHGfztHc9nHe9Pwn+PgCPSrCEB8HuMzzlGmsYanudknj/H0PcY0nG0aovNwTz70MKchtl+2YxRtpwjIA/+pEhijNeznvj51n/I3N4xjlI4i2NftRdfdfalgPNyIV4X9Vb7umsfYx/jlPFzIkIbr45qb+6XCw6UC6ah+me101CP8k5tNOhKkpXjZyPWKDZjzAGm6a0yTpvEWXxrGlQrpuo9ZMJjvNuJpkLb1cS2fzy87XMqQPvmy4SdIg2O7Upw5ZEEq3NS7bt4eo2T0DbLy7WstV2kENmlXITvVf2kYd/wZW23o7FGCTL26qP8gDXRzg4deBTJWuP4y83/w3uC4Zqg+lCF7pbtPdfxp8HCkghjnmwJBfqdsS0OQ0s3FP1bM+ARXGnboqVAAcaLLWvevNHxUFz2n9rwIgt0f/9Exp1NUX3scOtFAAtGKd9uOOT0LEKVhk1UZDkGC68tufXOmWHjS4ORqLsOhSOcfGx96HNHQGL6AA5LgtkUcJGEYzlKDAhxSoVAqe8RBEUa7AgU4PGXgUYcfuE1+CwMLpdzSDX7AbWIvK4BJSZ0waluHwIjZ1wCddd8kTHiX6HQ0fwEFQCiarwzDFloYbFEuAlqKujSJoLFqG7Q5XEOhAJhFjy1GGM+8SYjZLsuQA6VKZ+UQxrPMgi8eI8iN4rfhimXTNfb3LDTIGWU9b3FipFok3CGGOXnQIJck7WjZZClFwhkl3BuqVcizYuWxvYmEOjbf9xcV+wNNgQLknrx+6LdMh1CH8V2DYDqhrLnolCMFnhHpRWWTSZPrlOgOiyuV33941HDM1aRztJaf6f+1kzX1Ydj2miYzDEq+B/O3ZLj9PQRKDZ2bo8Wyc1SJivD8KdVorQ4eO/3JYrUy/8zDXHmLdr/zWFa1SC6BCL8CfAxhnHZg2uoAAAAASUVORK5CYII=;" vertex="1" parent="60">
                    <mxGeometry x="9" y="11" width="90" height="100" as="geometry"/>
                </mxCell>
            </root>
        </mxGraphModel>
    </diagram>
</mxfile>